<?xml version="1.0" encoding="UTF-8" standalone="no"?>
<!-- Created with Inkscape (http://www.inkscape.org/) -->

<svg
   width="512"
   height="512"
   viewBox="0 0 512 512"
   version="1.1"
   id="svg3753"
   inkscape:version="1.3 (0e150ed6c4, 2023-07-21)"
   sodipodi:docname="moquerie2.svg"
   inkscape:export-filename="../../Projects/moquerie/packages/moquerie/assets/moquerie.svg"
   inkscape:export-xdpi="96"
   inkscape:export-ydpi="96"
   xmlns:inkscape="http://www.inkscape.org/namespaces/inkscape"
   xmlns:sodipodi="http://sodipodi.sourceforge.net/DTD/sodipodi-0.dtd"
   xmlns="http://www.w3.org/2000/svg"
   xmlns:svg="http://www.w3.org/2000/svg">
  <sodipodi:namedview
     id="namedview3755"
     pagecolor="#ffffff"
     bordercolor="#666666"
     borderopacity="1.0"
     inkscape:pageshadow="2"
     inkscape:pageopacity="0.0"
     inkscape:pagecheckerboard="true"
     inkscape:document-units="px"
     showgrid="true"
     units="px"
     showguides="true"
     inkscape:guide-bbox="true"
     inkscape:snap-bbox="true"
     inkscape:bbox-nodes="true"
     inkscape:bbox-paths="true"
     inkscape:snap-bbox-edge-midpoints="true"
     inkscape:snap-bbox-midpoints="true"
     inkscape:object-paths="true"
     inkscape:snap-intersection-paths="true"
     inkscape:snap-smooth-nodes="true"
     inkscape:snap-midpoints="true"
     inkscape:snap-object-midpoints="true"
     inkscape:snap-text-baseline="true"
     inkscape:snap-center="true"
     inkscape:snap-page="true"
     inkscape:showpageshadow="0"
     inkscape:deskcolor="#d1d1d1"
     inkscape:zoom="0.80447207"
     inkscape:cx="-3.1076281"
     inkscape:cy="15.53814"
     inkscape:window-width="2560"
     inkscape:window-height="1371"
     inkscape:window-x="0"
     inkscape:window-y="0"
     inkscape:window-maximized="1"
     inkscape:current-layer="layer1">
    <sodipodi:guide
       position="67.733333,67.733332"
       orientation="-1,0"
       id="guide36438"
       inkscape:label=""
       inkscape:locked="false"
       inkscape:color="rgb(0,0,255)" />
    <inkscape:grid
       type="xygrid"
       id="grid37213"
       spacingx="8"
       spacingy="8"
       originx="0"
       originy="0"
       units="px"
       visible="true"
       empspacing="8" />
    <sodipodi:guide
       position="67.73333,67.733335"
       orientation="0,-1"
       id="guide37215"
       inkscape:locked="false" />
  </sodipodi:namedview>
  <defs
     id="defs3750" />
  <g
     inkscape:label="Layer 1"
     inkscape:groupmode="layer"
     id="layer1"
     style="display:inline;opacity:1">
    <path
       style="fill:#d50c2d;fill-opacity:1;stroke:none;stroke-width:1.82092px;stroke-linecap:butt;stroke-linejoin:miter;stroke-opacity:1"
       d="M 505.5556,139.46424 C 486.86212,189.13356 314.10285,330.54665 119.48939,294.19523 46.727984,263.9397 99.483461,225.23256 29.947125,78.748263 Z"
       id="path7"
       sodipodi:nodetypes="cccc" />
    <path
       style="fill:#000000;fill-opacity:1;stroke:none;stroke-width:1.82092px;stroke-linecap:butt;stroke-linejoin:miter;stroke-opacity:1"
       d="M 29.947125,78.748263 C 54.073172,87.166609 146.10684,57.958759 177.75893,61.117077 282.07594,71.52606 320.87134,75.922453 362.59465,78.30281 416.97774,81.405409 471.13748,143.7665 505.5556,139.46424 438.80965,185.4518 335.20925,243.95924 222.21438,220.41887 137.57661,202.78618 56.943935,136.85677 29.947125,78.748263 Z"
       id="path2"
       sodipodi:nodetypes="csscsc" />
    <path
       style="fill:#f43f5e;fill-opacity:1;stroke:none;stroke-width:1.82092px;stroke-linecap:butt;stroke-linejoin:miter;stroke-opacity:1"
       d="M 181.73706,78.748263 C 29.947125,163.62195 -20.649521,311.49284 19.827796,412.68613 50.81891,490.16391 121.16091,507.12156 161.4984,503.76009 404.36231,483.52143 212.09505,210.29954 434.72029,129.34491 L 416.09502,91.511128 Z"
       id="path1"
       sodipodi:nodetypes="cssccc" />
    <path
       style="fill:#000000;fill-opacity:1;stroke:none;stroke-width:1.82092px;stroke-linecap:butt;stroke-linejoin:miter;stroke-opacity:1"
       d="m 210.36893,148.98599 c -41.5056,42.28368 -62.75,90.07755 -65.08423,186.96377 11.50539,-106.91281 53.10201,-142.20139 94.49048,-178.42403 z"
       id="path13"
       sodipodi:nodetypes="cccc" />
    <path
       style="fill:#ffffff;fill-opacity:1;stroke:none;stroke-width:1.82092px;stroke-linecap:butt;stroke-linejoin:miter;stroke-opacity:1"
       d="M 84.153531,73.353294 C 154.43888,44.521921 305.56226,53.438809 444.83962,119.22558 424.97635,151.15483 323.40767,169.82223 239.77519,166.46912 187.51867,164.37399 65.829501,113.79611 84.153531,73.353294 Z"
       id="path6"
       sodipodi:nodetypes="ccsc" />
    <path
       style="fill:#d50c2d;fill-opacity:1;stroke:none;stroke-width:1.5473px;stroke-linecap:butt;stroke-linejoin:miter;stroke-opacity:1"
       d="m 29.947125,78.748263 c 50.596646,0 124.558245,-77.3657628 191.513955,-70.4700597 39.03406,4.0200677 42.10446,58.4699337 42.10446,58.4699337 0,0 34.61907,-55.667789 83.40297,-47.523462 C 403.93707,28.73539 442.68137,132.74925 505.5556,139.46424 461.86768,142.2158 403.46846,107.21293 360,107.83224 310.29296,108.54044 284.5833,132.56749 239.77518,131.89172 197.71148,131.25734 184,91.326478 120,96 74.028981,99.356977 73.670781,95.805113 29.947125,78.748263 Z"
       id="path5"
       sodipodi:nodetypes="cscscsssc" />
    <path
       style="fill:#ffffff;fill-opacity:1;stroke:none;stroke-width:1.82092px;stroke-linecap:butt;stroke-linejoin:miter;stroke-opacity:1"
       d="m 131.08499,166.74294 c 12.97772,-18.55583 -4.15213,-23.10296 -20.18323,-7.04004 -24.814749,24.86396 -58.910765,86.07699 -66.920987,120.19991 -4.774078,20.33724 3.837355,33.17384 16.725415,24.82605 13.878653,-8.98942 18.882903,-64.35604 70.378802,-137.98592 z"
       id="path8"
       sodipodi:nodetypes="sssss" />
    <path
       style="fill:#ffffff;fill-opacity:1;stroke:none;stroke-width:1.82092px;stroke-linecap:butt;stroke-linejoin:miter;stroke-opacity:1"
       d="m 195.92779,19.255525 c -19.66941,-0.99277 -60.10876,22.256453 -64.78737,29.13475 -12.42885,18.27246 30.73253,11.489322 50.21999,-5.67201 8.14859,-7.17592 25.41147,-22.915411 14.56738,-23.46274 z"
       id="path9"
       sodipodi:nodetypes="ssss" />
    <path
       style="fill:#ffffff;fill-opacity:1;stroke:none;stroke-width:1.82092px;stroke-linecap:butt;stroke-linejoin:miter;stroke-opacity:1"
       d="M 337.56216,34.865224 C 320.80824,24.512593 292.06937,56.66852 296,64 c 7.81001,14.567381 11.62097,5.924715 18.49118,-2.786054 6.72398,-8.525358 31.84168,-20.9291 23.07098,-26.348722 z"
       id="path10"
       sodipodi:nodetypes="ssss" />
    <path
       style="fill:#ffffff;fill-opacity:1;stroke:none;stroke-width:1.82092px;stroke-linecap:butt;stroke-linejoin:miter;stroke-opacity:1"
       d="m 297.67789,213.2805 c 6.46081,-21.70249 -7.01544,-24.31706 -14.74753,-2.98096 -13.9518,38.49897 -45.90309,145.75084 -38.10634,179.92317 4.64685,20.36669 21.37373,10.32379 24.645,-21.29947 3.40734,-32.93863 -0.24523,-60.06237 28.20887,-155.64274 z"
       id="path14"
       sodipodi:nodetypes="sssss" />
  </g>
</svg>
