<?xml version="1.0" encoding="UTF-8" standalone="no"?>
<!-- Created with Inkscape (http://www.inkscape.org/) -->

<svg
   width="1366"
   height="450"
   viewBox="0 0 1366 450"
   version="1.1"
   id="svg3753"
   xmlns="http://www.w3.org/2000/svg"
   xmlns:svg="http://www.w3.org/2000/svg">
  <defs
     id="defs3750" />
  <g
     id="layer1"
     style="display:none">
    <g
       id="g1"
       transform="matrix(6.8008695,0.21064053,0,7.8714606,-3641.7818,-2996.0904)"
       style="stroke-width:1.07583">
      <path
         id="path1"
         style="font-size:40px;line-height:1.25;font-family:Molle;-inkscape-font-specification:Molle;fill:#d50c2d;fill-opacity:1;stroke:none;stroke-width:1.07583;stroke-opacity:1"
         d="m 591.86094,370.81445 c -1.52146,0 -2.38047,0.94395 -3.2461,2.02149 -0.65773,0.80806 -1.16118,2.00025 -1.76562,3.49609 -0.67654,0.57894 -1.3861,1.173 -2.16016,1.79688 -0.005,0.003 -0.009,0.006 -0.0137,0.01 -4.2813,3.51959 -7.29424,6.21034 -9.74805,8.54688 0.0151,-0.4374 0.0977,-0.96013 0.0977,-1.37891 0,-6.01809 -1.67427,-10.50099 -5.43359,-12.52734 h -0.002 c -1.61781,-0.8732 -3.53866,-1.26172 -5.69726,-1.26172 -2.22072,0 -4.46845,0.5478 -6.70117,1.58594 -0.007,0.003 -0.0131,0.006 -0.0195,0.01 -1.07076,0.51397 -2.08583,1.12226 -3.04297,1.82227 -0.003,0.003 -0.007,0.005 -0.01,0.008 -0.96514,0.71653 -1.82418,1.5288 -2.56641,2.43359 -0.75471,0.90674 -1.36272,1.90311 -1.80664,2.97461 -0.4684,1.13063 -0.69726,2.35669 -0.69726,3.62696 0,1.4309 0.50714,2.82616 1.44531,3.89062 0,0 0.002,0.002 0.002,0.002 0.43553,0.49235 0.96412,0.90343 1.55664,1.18946 0.006,0.003 0.013,0.007 0.0195,0.01 0.54313,0.25348 1.11363,0.43555 1.76171,0.43555 0.54642,0 1.09358,-0.12568 1.58399,-0.34766 1.24046,-0.5525 2.28098,-1.27955 3.00586,-2.27148 0.50869,-0.69688 0.42178,-1.66292 -0.20313,-2.25781 -1.10855,-1.05474 -1.47656,-1.92238 -1.47656,-2.81836 0,-1.27537 0.49558,-2.22717 1.97852,-3.29102 0.004,-0.003 0.008,-0.006 0.0117,-0.01 1.40463,-1.02647 2.95222,-1.52344 4.8457,-1.52344 0.68287,0 1.1943,0.12465 1.64062,0.32422 -0.34078,0.77 -0.6677,1.51845 -1.05273,2.35547 0,0 0,0.002 0,0.002 -2.18122,4.74514 -4.37487,8.30069 -6.47656,10.64258 -2.3968,2.66096 -4.54978,3.74609 -6.55274,3.74609 -1.3825,0 -2.78231,-0.46573 -4.3164,-1.55664 -0.55685,-0.39584 -1.29529,-0.42421 -1.88086,-0.0723 -0.74666,0.44801 -1.33378,1.09671 -1.80469,1.85352 -0.002,0.003 -0.004,0.005 -0.006,0.008 -0.8252,1.34298 -1.25,2.88043 -1.25,4.47461 0,2.49242 1.32397,4.7299 3.51367,5.81641 0.002,6.5e-4 0.004,0.001 0.006,0.002 1.14346,0.56264 2.46178,0.7832 3.94141,0.7832 1.64,0 3.26132,-0.49501 4.77929,-1.39062 0,0 0,-0.002 0,-0.002 2.82807,-1.67047 5.42876,-4.4008 7.91797,-8.1211 0,0 0.002,-0.002 0.002,-0.002 2.08321,-3.12881 3.78418,-6.47379 5.29101,-9.92578 -0.32916,2.83206 -1.03382,5.77251 -2.45117,8.91992 -0.38927,0.40221 -0.77743,0.80907 -1.1543,1.25195 -0.002,0.003 -0.003,0.005 -0.006,0.008 -0.001,0.001 -0.003,0.002 -0.004,0.004 -1.69386,1.95337 -2.83203,3.2643 -2.83203,5.19531 0,0.93268 0.48483,1.67624 1.01562,2.20704 0.5308,0.53079 1.16991,0.94582 1.94531,1.35937 1.55504,0.82935 3.13014,1.29688 4.69532,1.29688 1.22627,0 1.52452,-0.5292 1.9707,-0.9668 l 0.002,-0.004 c 0.67745,-0.63004 1.12854,-1.38925 1.72461,-2.48437 0.003,-0.007 0.007,-0.0143 0.01,-0.0215 0.87009,-1.65188 1.4136,-3.27265 1.6914,-4.87304 1.82063,-2.4492 4.79827,-5.75349 8.59375,-9.63868 -0.11874,0.30339 -0.21315,0.62175 -0.33398,0.92383 -1.35395,3.37182 -2.5408,6.03351 -3.53711,7.95117 -0.99661,1.91824 -1.9028,3.11386 -2.19922,3.36133 -0.6654,0.55629 -0.81198,1.52121 -0.3418,2.25 0.40553,0.62857 0.95336,1.15184 1.58399,1.57227 0.001,6.5e-4 0.003,0.001 0.004,0.002 1.5038,0.99708 3.30647,1.47852 5.2461,1.47852 1.32239,0 2.60029,-0.25443 3.77539,-0.76953 0.001,-6.5e-4 0.003,-0.001 0.004,-0.002 2.62776,-1.15882 4.16993,-3.75563 4.16993,-6.76758 0,-6.87232 0.62721,-13.68419 1.84961,-20.44531 0.40581,-0.47199 0.81005,-0.94445 1.16796,-1.44336 0.005,-0.007 0.009,-0.0143 0.0137,-0.0215 0.23529,-0.33825 0.43572,-0.67071 0.60742,-1.00781 0.24431,-0.44831 0.42383,-0.97606 0.42383,-1.55469 0,-0.69137 -0.28293,-1.30425 -0.62891,-1.77149 -0.62695,-0.8619 -1.65481,-1.11914 -2.47656,-1.11914 z m 114.6289,4.31641 c -1.58775,0 -3.09936,0.44612 -4.33008,1.3457 -0.62163,0.45211 -1.14654,1.03807 -1.50586,1.7168 -0.006,0.0123 -0.0119,0.0247 -0.0176,0.0371 -0.36905,0.73805 -0.51368,1.55195 -0.51368,2.38867 0,1.19908 0.71112,2.34866 1.64454,3.0293 0,0 0.002,0 0.002,0 0.44292,0.32212 0.93875,0.56848 1.46094,0.73633 0.0175,0.005 0.0351,0.0107 0.0527,0.0156 0.54638,0.1561 1.11646,0.22266 1.70313,0.22266 0.61935,0 1.26206,-0.0861 1.95898,-0.23438 0.009,-0.001 0.0182,-0.003 0.0273,-0.004 0.74218,-0.17009 1.44766,-0.4145 2.10743,-0.73633 0.01,-0.005 0.0196,-0.0103 0.0293,-0.0156 0.68807,-0.35243 1.30674,-0.80326 1.82031,-1.35351 0.70898,-0.75962 1.00977,-1.80029 1.00977,-2.79297 0,-1.18302 -0.59837,-2.33096 -1.4668,-3.10938 -1.05369,-0.95665 -2.44811,-1.24609 -3.98242,-1.24609 z m -25.58594,6.99219 c -0.94216,0 -1.43022,0.41196 -1.89257,0.79492 -0.45914,0.38029 -0.88671,0.84767 -1.36133,1.42773 -0.6393,0.75725 -1.08696,1.49896 -1.39844,2.27539 -1.04516,-1.25409 -2.64005,-1.97851 -4.42969,-1.97851 -2.5943,0 -5.14774,0.61071 -7.5957,1.79101 -1.15897,0.54461 -2.24062,1.19806 -3.23633,1.96289 -0.99877,0.76716 -1.87542,1.62032 -2.61914,2.55664 -0.74258,0.92181 -1.34301,1.91286 -1.78515,2.96485 -0.003,0.006 -0.005,0.013 -0.008,0.0195 -0.12308,0.30332 -0.17783,0.58345 -0.25586,0.87305 -0.876,0.61815 -1.53707,0.84151 -1.96679,0.86718 -0.0237,-0.0753 -0.0723,-0.13743 -0.0723,-0.5664 0,-0.80355 0.22081,-1.83047 0.74219,-3.0586 0,0 0,-0.002 0,-0.002 0.60816,-1.43434 1.35947,-2.48466 2.23242,-3.23437 0.7581,-0.65162 0.80215,-1.8103 0.0957,-2.51758 -0.20121,-0.2012 -0.40264,-0.36058 -0.63476,-0.53125 -0.99388,-0.7523 -2.14362,-1.404 -3.52735,-0.9043 -0.007,0.002 -0.013,0.004 -0.0195,0.006 -1.93847,0.72692 -3.69075,2.29109 -5.55078,4.56445 -1.62205,1.98012 -2.69472,3.97054 -3.36523,5.98047 -0.37848,0.1568 -0.81907,0.32227 -1.67188,0.32227 -0.28902,0 -0.14936,-0.004 -0.10351,0.0508 0.0458,0.0548 -0.0723,-0.0819 -0.0723,-0.59766 0,-0.77866 0.34497,-1.87594 1.25586,-3.24804 0,0 0,-0.002 0,-0.002 0.81719,-1.23153 1.76352,-2.21222 2.85742,-2.98242 0.81012,-0.5699 0.972,-1.70485 0.35352,-2.47851 -0.76317,-0.95396 -1.62238,-1.81641 -3.02149,-1.81641 -1.64785,0 -3.03958,0.85104 -4.6582,2.12891 -0.003,0.001 -0.005,0.003 -0.008,0.004 -1.75816,1.4037 -3.22558,3.04033 -4.37305,4.89063 0,0 0,0.002 0,0.002 -0.62879,1.01523 -1.02066,2.02115 -1.36914,3.02344 -0.27443,0.22582 -0.54567,0.36848 -0.81836,0.56054 1.6276,-3.56935 3.03076,-6.22414 3.95703,-7.48046 0.4472,-0.60709 0.44641,-1.43479 -0.002,-2.04102 -0.51881,-0.70186 -1.36501,-1.10882 -2.14453,-1.22266 -0.2254,-0.0345 -0.44119,-0.0605 -0.68164,-0.0605 -0.34432,0 -0.55973,0.0484 -0.83399,0.10351 -0.62951,0.098 -0.88248,0.32587 -1.16796,0.54688 -0.0997,-0.0444 -0.19113,-0.12325 -0.29102,-0.15821 -0.73265,-0.25642 -1.50428,-0.33593 -2.375,-0.33593 -2.95891,0 -5.84645,0.65556 -8.59766,1.93945 0,0 -0.002,0 -0.002,0 -2.64188,1.23662 -4.84272,2.87617 -6.53125,4.91406 -0.46056,0.55305 -0.6507,1.15379 -0.99219,1.73047 0.0511,-0.48079 0.18555,-0.94712 0.18555,-1.43555 0,-2.42555 -1.25997,-4.62217 -3.3457,-6 -0.94406,-0.63335 -1.93886,-1.08349 -2.97657,-1.29101 -0.89827,-0.17967 -1.82721,-0.26758 -2.77929,-0.26758 -1.01889,0 -1.95666,0.10359 -2.82227,0.75 -7e-4,5.3e-4 -0.001,0.001 -0.002,0.002 -0.51583,0.38435 -0.86786,0.98865 -1.09375,1.64063 -2.33742,0.92563 -4.43885,2.28389 -6.125,4.21094 0,0 -0.002,0.002 -0.002,0.002 -1.98825,2.27847 -3.09961,4.8589 -3.09961,7.55469 0,1.98402 0.69486,3.83435 2.0664,5.11914 4.2e-4,3.8e-4 0.002,-3.9e-4 0.002,0 4e-4,3.7e-4 -4.1e-4,0.002 0,0.002 1.47709,1.38691 3.54186,1.98828 5.88086,1.98828 0.0287,7e-5 0.0573,-5.8e-4 0.0859,-0.002 l 0.17774,-0.01 -0.11328,-0.0215 c 0.11125,0.0222 0.22444,0.0333 0.33789,0.0332 2.53888,0 4.8448,-0.25924 6.91796,-0.79883 2.2734,-0.58568 4.18136,-1.53192 5.90625,-2.64843 0.25391,0.46073 0.51335,0.92001 0.87305,1.31054 1.19528,1.29922 2.8962,2.01953 4.68164,2.01953 0.3149,0 0.61151,-0.12515 0.92188,-0.16406 -0.41807,1.28413 -0.66797,2.46222 -0.66797,3.54297 0,1.72387 0.4691,3.32881 1.51953,4.5293 0.003,0.004 0.006,0.008 0.01,0.0117 1.10729,1.24329 2.77939,1.82617 4.54492,1.82617 0.60717,0 1.21033,-0.0508 1.86133,-0.43946 0.65099,-0.38865 1.16601,-1.32044 1.16601,-2.06054 l -0.002,0.043 c 0.0401,-1.61362 0.68742,-4.41842 1.87109,-8 1.73064,-0.50988 3.35273,-1.29494 4.84961,-2.35157 0.25648,0.41021 0.50373,0.82959 0.85352,1.16993 0.64238,0.62453 1.41702,1.10453 2.26757,1.42773 0.0123,0.005 0.0247,0.0106 0.0371,0.0156 0.83359,0.29421 1.69825,0.44921 2.56446,0.44921 0.79753,0 1.55501,-0.0845 2.26953,-0.27148 h 0.002 c 1.27848,-0.32611 2.48695,-0.90565 3.6582,-1.5957 1.2296,1.20952 3.01383,1.86718 4.96875,1.86718 1.92572,0 3.82043,-0.72934 5.60547,-1.99804 0.003,-0.003 0.007,-0.005 0.01,-0.008 0.51471,-0.37173 0.97826,-0.81977 1.45312,-1.25195 1.8036,2.32372 4.92048,3.45313 8.86914,3.45313 2.31106,0 4.54835,-0.52164 6.63477,-1.54297 0.96042,-0.4662 1.86248,-1.02358 2.69726,-1.66797 0,0 0.002,-0.002 0.002,-0.002 0.83241,-0.64585 1.58769,-1.34848 2.25976,-2.10743 0.14998,-0.16613 0.30335,-0.43277 0.45313,-0.61523 0.0315,0.86623 0.19511,1.72496 0.61328,2.47266 1.21629,2.2054 3.74032,3.26757 6.65625,3.26757 1.93503,0 3.83813,-0.72805 5.625,-1.99804 0.003,-0.003 0.007,-0.005 0.01,-0.008 0.28355,-0.20479 0.52923,-0.46617 0.80078,-0.68945 1.08891,1.75723 3.0652,2.8125 5.2832,2.8125 2.25469,0 4.46051,-0.69264 6.5,-1.98242 l 0.004,-0.002 c 0.68062,-0.42839 1.28376,-0.95075 1.88476,-1.47266 1.79125,2.38239 4.93956,3.53516 8.93555,3.53516 2.31104,0 4.54834,-0.52164 6.63476,-1.54297 0.96045,-0.4662 1.8625,-1.02359 2.69727,-1.66797 0,0 0.002,-0.002 0.002,-0.002 0.83242,-0.64585 1.58769,-1.34849 2.25977,-2.10743 0.7032,-0.77901 1.39995,-1.73559 2.125,-2.88476 0.7748,-1.21992 1.32031,-2.18382 1.32031,-3.45508 0,-0.58258 -0.23192,-1.39215 -0.84766,-1.89844 -0.61574,-0.50628 -1.31939,-0.57545 -1.86523,-0.53906 -0.53375,0.0358 -1.02039,0.31809 -1.31641,0.76367 -0.92461,1.39262 -1.98478,2.38401 -3.20898,3.06055 -0.8454,0.46308 -1.72202,0.70132 -2.62695,0.8418 0.45175,-0.18385 0.92254,-0.34398 1.34765,-0.56055 0.008,-0.004 0.0157,-0.008 0.0234,-0.0117 0.80117,-0.42326 1.52739,-0.91918 2.16406,-1.49219 0.005,-0.005 0.0104,-0.0104 0.0156,-0.0156 0.65104,-0.60221 1.18833,-1.29886 1.58398,-2.06836 0.42269,-0.79711 0.66797,-1.67926 0.66797,-2.57227 0,-0.81515 -0.14252,-1.61937 -0.58008,-2.3457 -0.97082,-1.6296 -2.89202,-2.41992 -4.92773,-2.41992 -2.5943,0 -5.14775,0.61071 -7.59571,1.79101 -1.15896,0.5446 -2.24061,1.19807 -3.23632,1.96289 -0.99876,0.76715 -1.87542,1.6203 -2.61914,2.55664 -0.74258,0.9218 -1.34301,1.91284 -1.78516,2.96485 -0.003,0.006 -0.005,0.013 -0.008,0.0195 -0.12559,0.30948 -0.18282,0.59549 -0.26172,0.89062 -0.3989,0.28122 -0.79722,0.5213 -1.19336,0.69727 -0.32299,0.1376 -0.66847,0.21094 -1.09375,0.21094 -0.23419,0 -0.23622,-0.0114 -0.35938,-0.13867 -0.16569,-0.17872 -0.16796,-0.21465 -0.16796,-0.33008 0,-0.40376 0.0592,-0.83013 0.18945,-1.29102 0.002,-0.009 0.004,-0.0182 0.006,-0.0273 0.42274,-1.59583 1.49194,-3.41091 3.32812,-5.38086 0.58163,-0.62407 0.61739,-1.58034 0.084,-2.24609 -0.39615,-0.49523 -0.67645,-0.63483 -1.09375,-0.91016 -0.55705,-0.40076 -1.21867,-0.73047 -2.02539,-0.73047 -0.94245,0 -1.624,0.36772 -2.33399,0.82617 -0.70999,0.45845 -1.44404,1.07151 -2.26758,1.85352 -0.003,0.003 -0.005,0.005 -0.008,0.008 -0.75992,0.73178 -1.51402,1.56368 -2.26562,2.49219 -0.001,0.002 -0.002,0.004 -0.004,0.006 -0.001,0.002 -0.003,0.002 -0.004,0.004 -0.76136,0.92837 -1.45545,1.89882 -2.08007,2.91211 -0.001,0.002 -0.003,0.004 -0.004,0.006 -0.1926,0.31515 -0.33901,0.59631 -0.48633,0.87305 -0.38757,0.41133 -0.7842,0.78865 -1.20117,1.10351 -0.9996,0.73436 -1.75305,0.97071 -2.2168,0.97071 -0.48271,0 -0.59435,-0.11215 -0.52343,-0.0527 0.0709,0.0594 0.0742,0.21875 0.0742,-0.0449 0,-0.0501 0.0136,-0.14262 0.0645,-0.2832 0.26708,-0.68844 0.73477,-1.36843 1.49609,-2.05469 l -1.15039,0.44336 c 0.70178,0 1.29522,-0.34417 1.6875,-0.70117 0.95673,-0.82611 1.57319,-2.0237 1.70117,-3.28516 0.0986,-0.97421 -0.63564,-1.83373 -1.61328,-1.88867 -2.24517,-0.12473 -4.03234,-0.54189 -5.57812,-1.0918 0.074,-0.30573 0.28711,-0.6038 0.28711,-0.96289 0,-0.76979 -0.31581,-1.64916 -0.91797,-2.22851 -1.05634,-1.02949 -2.53801,-1.46289 -4.10157,-1.46289 z m -4.15625,4.92773 0.01,0.0176 c -0.002,-0.003 -0.006,-0.003 -0.008,-0.006 -0.002,-0.004 2e-4,-0.008 -0.002,-0.0117 z m -7.47656,3.20117 c -0.0592,0.27866 -0.23533,0.5732 -1.00586,1.05078 -0.16718,0.10152 -0.4494,0.11123 -0.63086,0.20118 0.0444,-0.062 0.0306,-0.14359 0.0781,-0.20508 0,0 0,-0.002 0,-0.002 0.57018,-0.73881 1.03169,-0.96587 1.55859,-1.04492 z m 48.35938,0 c -0.0592,0.27866 -0.23534,0.57321 -1.00586,1.05078 -0.16719,0.10153 -0.4494,0.11123 -0.63086,0.20118 0.0444,-0.062 0.0306,-0.14359 0.0781,-0.20508 0,0 0,-0.002 0,-0.002 0.57017,-0.7388 1.03169,-0.96587 1.5586,-1.04492 z m -90.71289,0.0586 c -0.39082,0.45867 -0.77624,0.89816 -1.17969,1.39843 -1.20455,1.49137 -2.26413,2.57494 -3.0957,3.22657 -0.83209,0.65203 -1.40538,0.80078 -1.52344,0.80078 -0.28903,0 -0.14937,-0.004 -0.10352,0.0508 0.0459,0.0548 -0.0723,-0.0819 -0.0723,-0.59766 0,-0.5332 0.15069,-1.05415 0.57031,-1.68359 0.4174,-0.6261 1.02876,-1.21573 1.90234,-1.76172 0.005,-0.003 0.0104,-0.006 0.0156,-0.01 1.01062,-0.64632 2.18052,-1.10808 3.48633,-1.42382 z m -23.22266,0.23437 c 0.22131,0.15258 0.31446,0.35152 0.31446,0.89453 0,0.91013 -0.34767,1.8535 -1.29297,2.97266 -0.001,0.002 -0.003,0.004 -0.004,0.006 -0.90175,1.07558 -1.53004,1.31836 -1.90625,1.31836 -0.28903,0 -0.14937,-0.004 -0.10352,0.0508 0.0459,0.0548 -0.0723,-0.0819 -0.0723,-0.59766 0,-0.5972 0.0801,-1.14778 0.23828,-1.67187 0.003,-0.007 0.005,-0.0143 0.008,-0.0215 0.45736,-1.5916 1.32961,-2.4088 2.81836,-2.95117 z m 73.26953,0.26758 c 0.13941,0.1654 0.35299,0.25712 0.51367,0.40625 -0.72661,1.47793 -1.68506,2.79127 -3.05664,3.89453 -0.11265,0.0741 -0.24782,0.16291 -0.26758,0.17383 -0.8454,0.46308 -1.72201,0.70132 -2.62695,0.8418 0.45176,-0.18385 0.92255,-0.34398 1.34766,-0.56055 0.008,-0.004 0.0157,-0.008 0.0234,-0.0117 0.80118,-0.42326 1.52739,-0.91918 2.16406,-1.49219 0.005,-0.005 0.0104,-0.0104 0.0156,-0.0156 0.65102,-0.6022 1.18833,-1.29885 1.58399,-2.06836 0.1919,-0.3619 0.19119,-0.77776 0.30273,-1.16797 z m 14.75586,11.27539 c 0.002,0.004 0.006,0.007 0.008,0.0117 0.001,0.003 7.7e-4,0.005 0.002,0.008 z" />
      <path
         id="text1"
         style="font-size:40px;line-height:1.25;font-family:Molle;-inkscape-font-specification:Molle;fill:#f43f5e;fill-opacity:1;stroke:#ffffff;stroke-width:1.05336;stroke-dasharray:none;stroke-opacity:1"
         d="m 591.86094,372.5332 c -0.53386,0 -1.17188,0.46225 -1.91406,1.38672 -0.45573,0.5599 -1.03516,1.73178 -1.73829,3.51563 -0.7552,0.65104 -1.56901,1.32812 -2.4414,2.03125 -6.36719,5.23436 -10.65756,9.10807 -12.8711,11.62109 0.27344,-2.12239 0.41016,-4.04948 0.41016,-5.78125 0,-5.71614 -1.51042,-9.38803 -4.53125,-11.01562 -1.30209,-0.70313 -2.92969,-1.05469 -4.88281,-1.05469 -1.94011,0 -3.93229,0.47526 -5.97657,1.42578 -0.97655,0.46875 -1.90104,1.02214 -2.77343,1.66016 -0.85938,0.63801 -1.61459,1.35416 -2.26563,2.14843 -0.65104,0.78125 -1.16536,1.62761 -1.54297,2.53907 -0.3776,0.91145 -0.5664,1.90104 -0.5664,2.96875 0,1.0677 0.33854,1.98568 1.01562,2.7539 0.29948,0.33855 0.63802,0.59897 1.01563,0.78125 0.39062,0.1823 0.73567,0.27344 1.03515,0.27344 0.29948,0 0.59245,-0.0651 0.87891,-0.19531 1.05469,-0.46876 1.82943,-1.04167 2.32422,-1.71875 -1.34115,-1.27604 -2.01172,-2.63021 -2.01172,-4.0625 0,-1.83594 0.89844,-3.39844 2.69531,-4.6875 1.69271,-1.23698 3.64583,-1.85547 5.85938,-1.85547 1.5625,0 2.82552,0.48177 3.78906,1.44531 -0.49479,1.14583 -1.04167,2.36979 -1.64063,3.67188 -2.22655,4.84374 -4.47916,8.53515 -6.75781,11.07421 -2.59114,2.8776 -5.20182,4.31641 -7.83203,4.31641 -1.78385,0 -3.55469,-0.625 -5.3125,-1.875 -0.45572,0.27344 -0.86588,0.70312 -1.23047,1.28906 -0.66406,1.08073 -0.99609,2.27214 -0.99609,3.57422 0,2.00521 0.85287,3.43099 2.55859,4.27735 0.82032,0.40364 1.88152,0.60546 3.1836,0.60546 1.30208,0 2.60417,-0.38411 3.90625,-1.15234 2.51302,-1.48437 4.96745,-4.01693 7.36328,-7.59766 3.39843,-5.10416 6.00911,-10.65104 7.83203,-16.64062 0.48174,1.01563 0.75518,1.98568 0.82031,2.91016 0.0781,0.92447 0.11719,1.62109 0.11719,2.08984 0,3.94531 -1.0026,8.11198 -3.00781,12.5 -0.45573,0.45573 -0.90495,0.94401 -1.34766,1.46484 -1.61459,1.86197 -2.42188,3.22266 -2.42188,4.08203 0,0.63802 0.6836,1.32162 2.05079,2.05079 1.36719,0.72916 2.66276,1.09375 3.88671,1.09375 0.1823,0 0.44923,-0.16928 0.80079,-0.50782 0.36458,-0.33854 0.82682,-1.02213 1.38671,-2.05078 0.89844,-1.70572 1.44532,-3.32682 1.64063,-4.86328 2.1875,-2.98176 5.72266,-6.91407 10.60547,-11.79687 l 3.84766,-3.84766 c -0.92448,2.83854 -1.9336,5.625 -3.02735,8.35937 -2.73437,6.80989 -4.8112,10.8073 -6.23047,11.99219 0.26042,0.40365 0.62501,0.76172 1.09375,1.07422 1.19792,0.79427 2.63021,1.19141 4.29688,1.19141 1.10676,0 2.13542,-0.20834 3.08593,-0.625 2.09636,-0.92448 3.14454,-2.65626 3.14454,-5.19532 0,-7.10937 0.64452,-14.16016 1.93359,-21.15234 0.50781,-0.55989 0.97656,-1.13932 1.40625,-1.73828 0.20833,-0.29948 0.37761,-0.57943 0.50781,-0.83984 0.14323,-0.26042 0.21485,-0.50782 0.21485,-0.74219 0,-0.24739 -0.0977,-0.5013 -0.29297,-0.76172 -0.19532,-0.27343 -0.5599,-0.41016 -1.09375,-0.41016 z m 114.6289,4.31641 c -1.28905,0 -2.39583,0.33854 -3.32031,1.01562 -0.42968,0.3125 -0.76172,0.69011 -0.99609,1.13282 -0.22136,0.4427 -0.33203,0.98307 -0.33203,1.62109 0,0.63802 0.3125,1.18489 0.9375,1.64063 0.28646,0.20833 0.61197,0.37109 0.97656,0.48828 0.36458,0.10416 0.77473,0.15625 1.23047,0.15625 0.45572,0 0.98958,-0.0651 1.60156,-0.19532 0.625,-0.14323 1.20443,-0.34505 1.73828,-0.60546 0.53385,-0.27344 0.98307,-0.60547 1.34766,-0.9961 0.36458,-0.39062 0.54687,-0.93099 0.54687,-1.62109 0,-0.69011 -0.29948,-1.30209 -0.89843,-1.83594 -0.58594,-0.53385 -1.52995,-0.80078 -2.83204,-0.80078 z m -25.58593,6.99219 c -0.41667,0 -1.06121,0.53385 -1.9336,1.60156 -0.92448,1.09375 -1.38672,1.99219 -1.38672,2.69531 0,1.14583 0.6836,2.03125 2.05079,2.65625 -0.8328,2.26706 -2.24214,4.148 -4.16407,5.68555 -0.16195,0.10229 -0.31696,0.21803 -0.48437,0.31055 -1.47136,0.80729 -3.04037,1.21093 -4.70703,1.21093 -2.66927,0 -4.38152,-0.67708 -5.13672,-2.03125 1.78385,-0.20833 3.36589,-0.54687 4.74609,-1.01562 0.78125,-0.26041 1.51693,-0.5664 2.20703,-0.91797 0.69011,-0.36458 1.29558,-0.78125 1.81641,-1.25 0.52083,-0.48177 0.93099,-1.01562 1.23047,-1.60156 0.3125,-0.58594 0.46875,-1.17839 0.46875,-1.77735 0,-0.61198 -0.11067,-1.10025 -0.33203,-1.46484 -0.625,-1.05469 -1.77735,-1.58203 -3.45703,-1.58203 -2.33073,0 -4.61589,0.54037 -6.85547,1.62109 -1.05469,0.49479 -2.03126,1.08724 -2.92969,1.77735 -0.89844,0.69009 -1.67318,1.44531 -2.32422,2.26562 -0.65104,0.80729 -1.16536,1.66016 -1.54297,2.55859 -0.15867,0.39102 -0.2678,0.80689 -0.35742,1.23243 -0.12596,0.10376 -0.23532,0.23224 -0.36523,0.33007 -1.1849,0.8724 -2.25912,1.3086 -3.22266,1.3086 -1.10677,0 -1.66016,-0.78125 -1.66016,-2.34375 0,-1.10677 0.29297,-2.35027 0.87891,-3.73047 0.6901,-1.6276 1.58854,-2.91666 2.69531,-3.86719 -0.10417,-0.10416 -0.2539,-0.22787 -0.44922,-0.37109 -0.80729,-0.61198 -1.44531,-0.83334 -1.91406,-0.66406 -1.45833,0.54687 -3.06641,1.89453 -4.82422,4.04296 -1.77083,2.16146 -2.91015,4.25782 -3.41797,6.28907 -0.71614,0.42968 -1.69922,0.64453 -2.94922,0.64453 -1.26301,0 -1.89453,-0.75522 -1.89453,-2.26563 0,-1.25 0.51433,-2.64974 1.54297,-4.19922 0.92448,-1.39323 2.02474,-2.53906 3.30078,-3.4375 -0.625,-0.78125 -1.18489,-1.17187 -1.67969,-1.17187 -0.91145,0 -2.10937,0.58594 -3.59374,1.75781 -1.61458,1.28907 -2.94271,2.77344 -3.98438,4.45313 -0.69165,1.11672 -1.17152,2.20276 -1.48047,3.26367 -1.75557,1.50376 -3.58352,2.46453 -5.49219,2.81055 0.50782,-1.27604 1.02865,-2.51953 1.5625,-3.73047 1.75782,-3.90625 3.20313,-6.62761 4.33594,-8.16407 -0.22135,-0.29945 -0.55989,-0.48174 -1.01562,-0.54687 -0.16927,-0.0261 -0.3125,-0.0391 -0.42969,-0.0391 -0.11719,0 -0.30599,0.0261 -0.56641,0.0781 -0.26041,0.0391 -0.71614,0.38412 -1.36718,1.03516 -0.32552,-0.63802 -1.23699,-0.95703 -2.73438,-0.95703 -2.70833,0 -5.33203,0.59245 -7.87109,1.77734 -2.44791,1.14583 -4.42709,2.63021 -5.9375,4.45313 -0.89564,1.07476 -1.50447,2.17189 -1.88672,3.28515 -1.08254,0.91357 -2.24425,1.54153 -3.50391,1.8125 1.02865,-1.86197 1.54297,-3.82812 1.54297,-5.89844 0,-1.91406 -0.85937,-3.4375 -2.57813,-4.57031 -0.79426,-0.53385 -1.58202,-0.87891 -2.36328,-1.03515 -0.78124,-0.15626 -1.59505,-0.23438 -2.4414,-0.23438 -0.83333,0 -1.43229,0.13672 -1.79688,0.41016 -0.50781,0.3776 -0.72266,0.85938 -0.64453,1.44531 -2.47396,0.79427 -4.57683,2.18099 -6.30859,4.16016 -1.78386,2.04426 -2.67578,4.18619 -2.67578,6.42578 0,1.6276 0.50781,2.91667 1.52343,3.86718 1.08074,1.01562 2.64975,1.52344 4.70703,1.52344 l 0.39063,-0.0195 0.0977,0.0195 c 2.42187,0 4.58333,-0.2474 6.48437,-0.74219 2.94893,-0.75891 5.33181,-1.97191 7.18945,-3.60546 0.16387,1.08465 0.58987,2.00862 1.28711,2.76562 0.89844,0.97657 2.03777,1.46484 3.41797,1.46484 1.40625,0 2.74089,-0.48176 4.00391,-1.44531 -1.35417,2.82553 -2.03125,5.00652 -2.03125,6.54297 0,1.43229 0.36458,2.56511 1.09375,3.39844 0.74218,0.83333 1.82943,1.25 3.26172,1.25 0.87239,0 1.30859,-0.26042 1.30859,-0.78125 0.0521,-2.09635 0.78125,-5.18881 2.1875,-9.27735 2.21354,-0.49479 4.23177,-1.47135 6.05469,-2.92968 0.3156,-0.25699 0.60899,-0.54226 0.9043,-0.82422 0.18558,1.07793 0.62919,1.96681 1.34179,2.66015 0.46876,0.45573 1.02865,0.8073 1.67969,1.05469 0.66406,0.23438 1.32812,0.35156 1.99219,0.35156 0.67708,0 1.28906,-0.0716 1.83593,-0.21484 1.58855,-0.40365 3.09897,-1.13933 4.53126,-2.20703 0.75521,1.61458 2.26563,2.42187 4.53124,2.42187 1.4974,0 3.03386,-0.55989 4.60938,-1.67968 0.70313,-0.50782 1.36719,-1.08073 1.99219,-1.71875 0.31183,-0.31833 0.56499,-0.6498 0.84765,-0.97461 0.10804,0.39416 0.23473,0.77858 0.42188,1.13086 1.23698,2.29166 3.92579,3.4375 8.0664,3.4375 2.0573,0 4.01693,-0.45573 5.87891,-1.36719 0.85937,-0.41667 1.66016,-0.91146 2.40235,-1.48438 0.75521,-0.58594 1.43229,-1.21745 2.03124,-1.89453 0.61198,-0.67708 1.26302,-1.5625 1.95313,-2.65625 0.10685,-0.16819 0.14962,-0.28915 0.24023,-0.44531 0.93033,-1.40437 1.86934,-2.89183 2.82618,-4.55469 1.09375,0.2474 2.42187,0.41016 3.98437,0.48828 -1.60156,0.88542 -2.92318,2.00521 -3.96484,3.35938 -0.50782,0.65104 -0.91146,1.32161 -1.21094,2.01172 -0.28646,0.6901 -0.42969,1.39323 -0.42969,2.10937 0,0.70312 0.14974,1.32162 0.44922,1.85547 0.87239,1.58855 2.59115,2.38281 5.15625,2.38281 1.51041,0 3.05338,-0.55989 4.62891,-1.67968 0.70312,-0.50782 1.36719,-1.08073 1.99218,-1.71875 0.22561,-0.23031 0.40295,-0.47138 0.61329,-0.70508 0.0314,0.70428 0.1456,1.32959 0.38281,1.83789 0.71614,1.58854 2.08334,2.38281 4.10156,2.38281 1.91406,0 3.77604,-0.57292 5.58594,-1.71875 0.80728,-0.5078 1.54948,-1.08723 2.22656,-1.73828 0.37833,-0.35691 0.67449,-0.72121 1.00586,-1.08203 0.10913,0.41299 0.24426,0.81226 0.43945,1.17969 1.23698,2.29166 3.92579,3.4375 8.06641,3.4375 2.05729,0 4.01693,-0.45573 5.87891,-1.36719 0.85938,-0.41667 1.66015,-0.91146 2.40234,-1.48438 0.75521,-0.58594 1.43229,-1.21745 2.03125,-1.89453 0.61198,-0.67708 1.26303,-1.5625 1.95312,-2.65625 0.70313,-1.10677 1.05469,-1.95312 1.05469,-2.53906 0,-0.52083 -0.29296,-0.76172 -0.8789,-0.72266 -1.05469,1.58854 -2.32423,2.79297 -3.8086,3.61329 -1.47135,0.80729 -3.04036,1.21093 -4.70703,1.21093 -2.66927,0 -4.38151,-0.67708 -5.13672,-2.03125 1.78385,-0.20833 3.36589,-0.54687 4.7461,-1.01562 0.78125,-0.26041 1.51692,-0.5664 2.20703,-0.91797 0.6901,-0.36458 1.29557,-0.78125 1.8164,-1.25 0.52084,-0.48177 0.93099,-1.01562 1.23047,-1.60156 0.3125,-0.58594 0.46875,-1.17839 0.46875,-1.77735 0,-0.61198 -0.11068,-1.10025 -0.33203,-1.46484 -0.625,-1.05469 -1.77735,-1.58203 -3.45703,-1.58203 -2.33073,0 -4.61589,0.54037 -6.85547,1.62109 -1.05468,0.49479 -2.03125,1.08724 -2.92969,1.77735 -0.89843,0.69009 -1.67317,1.44531 -2.32421,2.26562 -0.65104,0.80729 -1.16537,1.66016 -1.54297,2.55859 -0.15867,0.39102 -0.26781,0.80689 -0.35743,1.23243 -0.12596,0.10376 -0.23532,0.23224 -0.36523,0.33007 -0.53385,0.39062 -1.08073,0.70964 -1.64063,0.95704 -0.54687,0.23437 -1.13932,0.35156 -1.77734,0.35156 -0.63802,0 -1.17188,-0.22136 -1.60156,-0.66406 -0.42969,-0.45574 -0.64453,-0.96355 -0.64453,-1.52344 0,-0.57291 0.0846,-1.15885 0.2539,-1.75781 0.52084,-1.96615 1.76433,-4.00391 3.73047,-6.11329 -0.10416,-0.13021 -0.35156,-0.32552 -0.74218,-0.58593 -0.3776,-0.27344 -0.72266,-0.41016 -1.03516,-0.41016 -0.72917,0 -1.86849,0.73568 -3.41797,2.20703 -0.70313,0.67709 -1.41276,1.45834 -2.12891,2.34375 -0.71614,0.8724 -1.36719,1.78386 -1.95312,2.73438 -0.21035,0.3442 -0.39216,0.69115 -0.57617,1.03711 -0.48304,0.52636 -0.99754,1.00571 -1.55274,1.42382 -1.18489,0.8724 -2.26562,1.3086 -3.24219,1.3086 -1.44531,0 -2.16796,-0.60547 -2.16796,-1.81641 0,-0.28645 0.0586,-0.58594 0.17578,-0.89844 0.3776,-0.97656 1.02864,-1.88151 1.95312,-2.71484 0.1823,0 0.36458,-0.0846 0.54688,-0.25391 0.66406,-0.5599 1.04166,-1.28906 1.13281,-2.1875 -3.04687,-0.16927 -5.57291,-0.74219 -7.57813,-1.71875 0.44272,-0.96354 0.66407,-1.64714 0.66407,-2.05078 0,-0.41666 -0.13021,-0.74869 -0.39063,-0.99609 -0.66406,-0.65104 -1.63411,-0.97656 -2.91015,-0.97656 z m -50.09766,4.29687 h 0.17578 c -0.63802,0.70313 -1.30859,1.50391 -2.01172,2.40235 -0.61198,0.69009 -1.24349,1.4388 -1.89453,2.24609 -2.51302,3.11198 -4.4987,4.66797 -5.95703,4.66797 -1.26302,0 -1.89453,-0.75522 -1.89453,-2.26563 0,-0.89844 0.28646,-1.77734 0.85937,-2.63672 0.57292,-0.85937 1.38021,-1.61458 2.42188,-2.26562 2.23958,-1.43229 5.00651,-2.14844 8.30078,-2.14844 z m 38.80859,0.3125 c 0.96354,0 1.44532,0.52734 1.44532,1.58203 0,1.04167 -0.63152,1.95313 -1.89454,2.73438 -1.19791,0.72916 -2.63021,1.1914 -4.29687,1.38672 0.10417,-1.45833 0.59896,-2.76042 1.48437,-3.90625 0.92448,-1.19792 2.01172,-1.79688 3.26172,-1.79688 z m 48.35938,0 c 0.96354,0 1.44531,0.52734 1.44531,1.58203 0,1.04167 -0.63151,1.95313 -1.89453,2.73438 -1.19792,0.72916 -2.63021,1.1914 -4.29688,1.38672 0.10417,-1.45833 0.59896,-2.76042 1.48438,-3.90625 0.92448,-1.19792 2.01172,-1.79688 3.26172,-1.79688 z m -114.27734,0.19531 c 1.35416,0.45573 2.03124,1.38672 2.03124,2.79297 0,1.38021 -0.5664,2.74089 -1.69921,4.08203 -1.08073,1.28906 -2.15495,1.9336 -3.22266,1.9336 -1.26302,0 -1.89453,-0.75522 -1.89453,-2.26563 0,-0.75521 0.10417,-1.47787 0.3125,-2.16797 0.65104,-2.26562 2.14193,-3.72396 4.47266,-4.375 z" />
    </g>
  </g>
  <g
     id="g13">
    <g
       id="g15"
       transform="translate(0,110.27311)">
      <path
         d="m 122.72423,-9.3757975 c -3.88084,1.307985 -7.70043,2.8381062 -11.4507,4.5831073 -13.257276,6.110832 -25.720747,15.0201842 -36.995538,26.3879542 -0.04152,0.04435 -0.08279,0.08896 -0.123705,0.13378 -6.882187,7.108461 -12.939379,14.831512 -18.116248,23.084428 -0.01762,0.0303 -0.03497,0.06059 -0.05239,0.09104 -5.186017,8.401893 -9.083479,17.177775 -11.619879,26.206414 -2.62654,9.091773 -3.658758,18.271022 -3.09104,27.372282 0.599405,9.606685 3.441863,18.950875 8.089328,27.805725 5.225884,9.95691 13.945719,17.91345 24.152979,22.32766 0.0072,0.003 0.01441,0.006 0.02161,0.009 4.741876,2.04095 9.804809,3.25959 14.829021,3.45475 0.05546,0.004 0.110875,0.009 0.166319,0.0125 4.582854,0.1186 9.077556,-0.3071 13.505206,-2.21547 3.73056,-1.60792 7.0664,-4.08605 9.72748,-7.07614 6.75864,-7.49735 11.76872,-15.60219 13.8899,-24.77261 1.48418,-6.43218 -1.97076,-13.26532 -8.28123,-15.86019 -11.21193,-4.60611 -16.61027,-9.679084 -19.429072,-16.200307 -3.98535,-9.219985 -3.331739,-17.637158 4.696592,-29.66466 0.0199,-0.03545 0.0396,-0.07105 0.0591,-0.106782 5.94644,-9.08059 13.71726,-15.960271 23.7961,-20.821536 2.71205,-1.317406 5.59479,-2.493347 8.65695,-3.530396 5.20914,-1.764154 9.46167,-2.129114 13.38376,-1.758349 -0.70363,8.1595 -0.97119,11.904952 -1.67483,20.064451 l 0.005,0.01466 c -0.94774,10.814182 -2.00979,21.000406 -3.19082,30.537409 0,2e-6 0,4e-6 0,6e-6 -3.2349,26.151358 -7.42718,47.640298 -12.69507,64.161048 -8.25087,25.71082 -18.37477,39.30842 -31.345812,45.28425 -8.955489,4.12584 -19.451142,5.14674 -33.521372,2.77552 -5.106419,-0.85998 -9.997492,1.4929 -12.338141,5.93676 -2.985102,5.65531 -4.031024,12.1113 -3.809036,18.85346 -7.23e-4,0.0249 -0.0014,0.0497 -0.002,0.0746 0.460727,11.95442 4.515252,23.59646 11.271575,34.18906 10.485476,16.43919 27.463704,27.01681 43.325745,28.05657 0.0132,-0.002 0.0266,-0.003 0.0399,-0.005 8.41302,0.52112 16.37174,-1.58933 24.59455,-5.50403 9.09432,-4.32962 16.54587,-11.88743 22.49425,-22.02595 l -0.007,-0.0142 c 11.07838,-18.90579 18.80147,-44.80233 24.73651,-77.87196 0.003,-0.007 0.005,-0.0131 0.008,-0.0196 0.30304,-1.70992 0.59873,-3.42264 0.88729,-5.13834 4.42224,-26.29473 7.11293,-52.88001 9.08556,-80.290183 4.83252,22.003533 7.24092,45.101013 6.12157,71.663063 -1.53282,3.82433 -3.02054,7.6872 -4.30308,11.78837 -0.005,0.0266 -0.007,0.0426 -0.0184,0.0713 -0.004,0.01 -0.0124,0.0213 -0.0136,0.0383 -1.6647,5.15574 -3.12886,9.84047 -4.24351,14.21748 -2.81587,11.05748 -3.41453,20.1749 0.5623,30.312 2.67501,6.81841 7.84266,11.22441 12.58665,13.97091 1.46472,0.84797 2.958,1.59632 4.4952,2.2684 3.46401,1.522 7.14087,2.65738 11.21019,3.68456 11.77375,2.97185 22.56223,3.46615 32.19905,0.63648 7.56603,-2.22163 8.12835,-6.65387 9.89106,-10.74272 0,0 0.003,-0.0337 0.003,-0.0337 2.75865,-5.94893 3.81168,-12.35845 5.13242,-21.66894 0.006,-0.0592 0.0108,-0.11868 0.0156,-0.17817 1.80261,-13.95617 1.79783,-27.08182 0.12056,-39.6751 6.7605,-21.73714 19.96008,-51.64648 40.06425,-87.161726 -0.29481,2.499873 -0.38466,5.077626 -0.68801,7.570144 -3.42901,27.876532 -6.38957,49.901702 -9.30811,66.093752 -2.91013,16.14546 -6.37308,26.65748 -7.80426,29.00443 -3.21859,5.28689 -2.08726,12.82534 2.48294,17.61401 3.94117,4.12961 8.55454,7.26325 13.45407,9.5174 0.01,0.004 0.0201,0.007 0.0301,0.0102 11.6743,5.33493 24.08894,6.48682 36.569,3.95347 5.72092,-1.16131 11.12573,-3.14096 16.12152,-5.94546 2.43738,-1.36667 4.77671,-2.92939 7.00649,-4.68892 0.007,-0.007 0.0142,-0.0123 0.0213,-0.0186 15.0898,-11.96879 21.584,-33.72974 17.06586,-56.97673 -10.3289,-53.144896 -16.26671,-106.388756 -16.71088,-160.226971 2.39094,-4.131404 4.79653,-8.268985 6.82678,-12.543669 0.0247,-0.06104 0.0489,-0.122273 0.0726,-0.183694 1.32214,-2.892577 2.39448,-5.696593 3.24746,-8.505586 1.2552,-3.749795 1.92298,-8.050368 1.14099,-12.534375 -0.93581,-5.365984 -3.94744,-9.787516 -7.28375,-13.009184 -6.06654,-5.95591 -14.4607,-6.691813 -20.89684,-5.647421 0,0 -0.004,-0.0092 -0.004,-0.0092 -11.90678,1.932134 -17.19854,10.425485 -22.18606,19.907772 -3.80746,7.124201 -5.77196,17.046398 -7.89687,29.400919 -2.61384,3.374999 -5.27375,6.789477 -8.07514,10.3430702 -1.7026,2.1594637 -3.44544,4.3545264 -5.24793,6.6056316 -0.0292,0.031798 -0.0581,0.063646 -0.0869,0.095664 -25.81769,32.91853 -43.03216,59.724995 -55.32796,81.378621 -0.83463,-3.339129 -1.36439,-7.449267 -2.26549,-10.620349 -12.9296,-45.500973 -34.93578,-76.5913474 -69.55727,-83.11941 -0.005,0.0017 -0.0104,0.0034 -0.0157,0.0051 -14.80745,-2.799978 -31.06074,-0.973545 -48.1864,4.7984255 z m 4.65629,12.6991727 c 15.30782,-5.155491 28.99194,-6.5111943 40.8438,-4.29216956 27.48716,5.12072996 47.04431,29.99996636 59.80295,73.14695936 3.87053,13.089313 7.16946,27.863275 10.04627,44.397295 9.51128,-22.480832 31.3241,-59.751239 69.12553,-108.039215 0.45395,-0.5799584 0.91031,-1.1615907 1.36906,-1.744888 5.35061,-6.66473096 10.36165,-12.994947 15.04393,-19.045841 2.46386,-14.690722 5.11742,-24.532263 7.76253,-29.443786 4.29884,-8.115879 8.57426,-12.510292 12.71507,-13.181265 4.14129,-0.67105 7.16752,-0.05618 9.06825,1.822884 1.88237,1.778981 2.99494,3.630223 3.34489,5.545321 0.33164,1.814858 0.12959,3.815592 -0.60045,6.003412 -0.63004,2.172439 -1.52808,4.542162 -2.691,7.112424 -2.42524,5.155636 -5.15023,10.212837 -8.16824,15.17569 0.66005,55.692052 7.31294,110.784733 18.45419,165.651274 3.97697,19.58511 -0.34494,34.09008 -12.55238,43.7707 -0.95419,0.75278 -1.93236,1.46193 -2.93478,2.12762 -4.81985,3.20319 -10.19523,5.39957 -16.15801,6.61159 -10.84425,2.20425 -20.839,1.18777 -30.20472,-3.09326 -3.66709,-1.68765 -6.76525,-3.85992 -9.28789,-6.53123 6.95694,-11.34844 12.34213,-44.53667 19.65975,-100.829458 1.61452,-12.543701 3.12567,-25.168876 4.51907,-37.891572 1.11078,-10.131315 2.14804,-20.320345 3.10518,-30.569019 -2.45869,3.869891 -4.89589,7.745616 -7.31122,11.627051 -4.84554,7.787367 -9.60929,15.602345 -14.28402,23.442374 -26.62258,44.65272 -42.3512,80.937254 -50.12871,107.202514 2.19714,11.94383 2.2699,25.09422 0.52392,39.5254 -1.16881,8.73363 -2.43126,14.6745 -3.90602,17.87755 -1.38959,3.17225 -2.63779,4.92498 -3.7766,5.25999 -7.65062,2.25065 -16.5862,1.99457 -27.04422,-0.63928 -10.45624,-2.63346 -16.64926,-6.16319 -18.42281,-10.86165 -2.36626,-6.26869 -1.15163,-18.16134 4.49163,-35.33879 1.52433,-4.79914 3.21821,-9.36904 5.07749,-13.70799 2.04372,-36.89281 -0.6099,-70.011206 -10.20532,-99.658764 -1.13331,-3.50164 -3.11243,-8.650397 -5.93524,-15.391614 -2.72771,-6.772484 -7.12793,-13.444201 -13.28407,-19.929032 0.80562,39.886046 -1.97054,78.46237 -7.21437,116.02742 0,1e-5 0,1e-5 0,1e-5 -1.19296,8.5476 -2.51402,17.03357 -3.94685,25.47381 -5.49137,31.91899 -12.76439,56.24028 -22.65961,73.17786 -5.14541,8.79616 -11.26893,14.87543 -18.66835,18.40788 -7.3978,3.53167 -14.05874,5.14498 -20.20555,4.77793 -12.702066,-0.80479 -23.408611,-7.61941 -31.596804,-21.08738 -5.324827,-8.75829 -8.261487,-17.8613 -8.511595,-27.44373 -0.10744,-5.20445 0.75223,-9.51997 2.552725,-12.91862 15.95069,2.63627 29.167947,1.60171 40.468824,-3.59291 16.61793,-7.63871 28.51465,-24.7696 37.52184,-52.38422 4.00233,-12.34137 7.37708,-26.84235 10.23204,-43.49327 2.77171,-16.159306 5.07709,-34.404707 7.02539,-54.730306 1.07829,-11.217101 2.06518,-21.400089 2.96874,-31.228071 -9.80346,-4.893838 -20.85419,-5.36793 -32.93565,-1.273332 -3.04948,1.033518 -5.98111,2.204469 -8.7912,3.509969 -12.94634,5.966238 -23.359037,14.880373 -30.899519,26.439468 -9.850325,14.811528 -11.426549,28.896976 -5.490041,42.067741 4.642424,10.299701 13.935776,17.890161 27.43519,23.334471 -1.41575,6.29837 -5.07775,12.62182 -10.9076,19.08646 -1.57403,1.7766 -3.395682,3.10989 -5.47668,4.00851 -2.081917,0.89901 -4.778079,1.29393 -8.111008,1.20405 -3.241441,-0.12986 -6.488492,-0.91449 -9.751794,-2.35252 -7.388055,-3.27123 -13.042607,-8.57776 -16.811838,-16.08823 -3.771165,-7.51434 -5.905707,-15.10724 -6.296053,-22.842513 -0.390042,-7.73043 0.534897,-15.48703 2.828034,-23.251959 2.248335,-7.854894 5.659277,-15.499322 10.237167,-22.881225 4.677292,-7.422666 10.133649,-14.352328 16.33007,-20.738278 9.784006,-9.843622 20.312612,-17.427714 31.333952,-22.7082393 3.70065,-1.7881292 7.46409,-3.3259307 11.28273,-4.6120005 z m 1088.69528,36.1260998 -6e-4,0.0019 c -11.8624,-4.686697 -24.3272,-5.58322 -35.6748,-2.129475 -5.7266,1.727653 -11.004,4.759217 -15.2531,8.940738 -0.073,0.07652 -0.1446,0.154359 -0.2161,0.232677 -4.4554,4.598127 -7.4069,10.366632 -9.3672,16.649498 -2.8044,8.987864 -0.4101,19.411877 4.4721,26.815638 0,0.0016 0.01,0.0032 0.015,0.0048 2.328,3.520955 5.1865,6.618636 8.4006,9.212572 0.1076,0.086 0.2164,0.170114 0.3265,0.252427 3.4121,2.57069 7.1955,4.55462 11.258,6.11644 4.292,1.65004 8.9524,2.74886 14.1731,3.58896 0.066,0.016 0.1327,0.0315 0.1991,0.0465 5.5883,0.80527 11.1369,1.01557 16.6159,0.57738 0.083,-0.009 0.1649,-0.0189 0.2473,-0.0296 1.5734,-0.15794 3.1346,-0.38032 4.6789,-0.66976 4.1108,-0.77679 8.1103,-2.0271 11.901,-3.80329 7.1958,-3.37162 12.5005,-9.959029 15.5171,-17.175869 3.6017,-8.616953 2.7743,-18.852598 -1.3333,-27.315447 -1.1841,-2.478718 -2.6372,-4.733847 -4.3199,-6.790447 -5.3231,-6.529662 -12.944,-11.090198 -21.6388,-14.525444 -10e-5,-5.6e-5 -3e-4,-1.12e-4 -4e-4,-1.68e-4 z m -4.6443,12.706005 c 9.5844,3.791172 15.7665,8.652925 18.4931,14.355151 0.5863,1.193249 1.0661,2.372054 1.4403,3.535839 1.4281,4.434138 1.3174,8.65359 -0.2835,12.650257 -2.02,5.042805 -4.9038,8.434958 -8.6039,10.202926 -0.058,0.02783 -0.1165,0.0555 -0.175,0.083 -3.6579,1.715 -7.7076,2.788629 -12.152,3.240927 -4.4793,0.363766 -9.0936,0.200043 -13.863,-0.485993 -4.6445,-0.746099 -8.556,-1.71916 -11.7588,-2.949021 -3.2012,-1.22925 -5.9515,-2.704406 -8.2573,-4.440056 -2.2723,-1.832378 -4.1623,-3.894477 -5.675,-6.191368 -3.2955,-5.017459 -4.2115,-9.904028 -2.6558,-14.680311 1.5554,-4.775554 3.6704,-8.531559 6.37,-11.263974 2.7928,-2.696952 6.1531,-4.642216 10.0887,-5.815636 8.4755,-2.558701 17.5448,-1.994504 27.0322,1.758257 z M 1013.6291,36.131041 c -6.8382,-1.49965 -10.9854,0.952203 -14.85641,3.213035 -3.84798,2.247299 -7.58504,5.240234 -11.77027,9.044736 -5.60687,4.939499 -9.77572,10.076987 -12.98554,15.668479 -5.82494,-11.199941 -16.41454,-18.99591 -29.34234,-21.23557 -18.71471,-3.242213 -37.81222,-1.316818 -56.38364,5.493801 -5.28553,1.874124 -10.38195,4.110094 -15.27252,6.708403 -3.23156,1.716311 -6.37314,3.59061 -9.42021,5.623306 -7.68357,5.125551 -14.48748,11.08183 -20.34561,17.829355 -5.84138,6.635611 -10.65785,13.952336 -14.36668,21.881144 -0.0221,0.049 -0.044,0.0983 -0.0657,0.14775 -1.03661,2.28514 -1.58639,4.45162 -2.29729,6.66333 -6.43842,4.21004 -11.1076,5.51143 -14.09755,5.42227 -0.12384,-0.60673 -0.42769,-1.12983 -0.20197,-4.49816 0.42213,-6.29924 2.49183,-14.238697 6.82541,-23.50577 l 0.001,-0.01556 c 5.06199,-10.836603 10.99912,-18.531072 17.68417,-23.738169 5.79589,-4.518696 6.90575,-13.569448 2.25579,-19.679485 -1.32231,-1.735438 -2.67874,-3.144375 -4.25051,-4.660822 -6.71365,-6.658716 -14.73779,-12.638292 -25.04719,-9.628536 -0.0483,0.01101 -0.0965,0.02232 -0.14474,0.03403 -14.42329,4.419369 -27.80789,15.715675 -41.77975,32.662777 -12.17946,14.755334 -20.19065,30.019266 -25.26911,45.547824 -2.67335,1.08718 -5.75014,2.2119 -11.68237,1.91234 -0.61702,-0.0311 -0.60054,-0.016 -0.7588,-0.0152 0.13408,0.17351 -0.45146,-0.6153 -0.37866,-4.35018 0.11905,-6.107267 2.6829,-14.670343 9.37008,-25.103878 l 3.8e-4,-0.01559 c 6.00794,-9.377919 12.97262,-16.703098 21.00906,-22.252629 5.94145,-4.098792 7.49556,-12.944946 3.24995,-19.330478 -5.23018,-7.860977 -11.27626,-15.059518 -21.48033,-15.611345 -12.00193,-0.649061 -22.31742,5.60603 -34.07556,15.231789 -0.0195,0.0099 -0.0389,0.01923 -0.0584,0.02889 -7.44649,6.167933 -14.10698,13.025489 -19.94953,20.522835 -4.19006,5.37655 -7.95799,11.079984 -11.29536,17.094824 l 1.6e-4,0.0156 c -4.37122,7.888615 -7.03339,15.789706 -9.34971,23.626734 -1.89367,1.748197 -3.76929,2.845474 -5.64563,4.333972 10.22728,-26.337688 19.63716,-46.189765 26.24963,-56.533175 0.40805,-0.638327 0.80541,-1.240337 1.19161,-1.805287 3.20449,-4.692083 3.20963,-11.207844 -0.0618,-16.066326 -0.37689,-0.560064 -0.7776,-1.097582 -1.19936,-1.612488 -3.81519,-4.658218 -9.34403,-7.455385 -14.48365,-8.354148 -1.64828,-0.300671 -3.22745,-0.530852 -4.9834,-0.557433 -2.51206,-0.038 -4.08709,0.322661 -6.07938,0.731776 -4.58087,0.715811 -6.40002,2.500792 -8.43954,4.221017 -0.73418,-0.35487 -1.4159,-0.979904 -2.15072,-1.259744 -5.38751,-2.051145 -11.05176,-2.691898 -17.41177,-2.673659 -21.63367,0.06205 -42.56173,5.65627 -61.8677,16.468943 -0.005,3.18e-4 -0.01,6.36e-4 -0.0146,9.54e-4 -18.54493,10.417199 -33.32685,24.135925 -43.85463,40.854752 -2.87276,4.53699 -3.77417,9.333853 -5.74775,14.01012 -6e-5,-3.790897 0.60309,-7.507917 0.24024,-11.335366 -1.58598,-16.728947 -9.96995,-31.593635 -23.14222,-41.486006 0,0 -10e-6,-2e-6 -10e-6,-2e-6 -1.80178,-1.353607 -3.69125,-2.612261 -5.66221,-3.767665 -7.40751,-4.413498 -15.08436,-7.315917 -22.87913,-8.240845 -6.74565,-0.800701 -13.64535,-0.823247 -20.62536,-0.09848 -7.46914,0.775547 -14.24875,2.348633 -19.84079,8.119333 -0.005,0.0047 -0.006,0.009 -0.0124,0.01757 -3.33521,3.434172 -5.1974,8.445745 -6.07233,13.719906 -15.87485,9.263623 -29.24716,21.898991 -38.52812,38.620234 0,0 -0.0114,0.0179 -0.0114,0.0179 -10.95079,19.793711 -14.65257,40.959581 -10.60135,61.803821 2.97676,15.31594 10.46276,28.86267 21.34306,37.4124 0.003,0.002 0.0127,-0.005 0.0133,-0.002 0.003,0.002 -1e-4,0.0158 0.003,0.0153 11.74212,9.2487 26.05564,11.99394 41.44287,10.09346 0.18873,-0.0223 0.37653,-0.0506 0.56339,-0.0837 0.38619,-0.0746 0.77242,-0.14895 1.15872,-0.22321 -0.25767,-0.0247 -0.51536,-0.0494 -0.77306,-0.0739 0.7601,0.0824 1.51937,0.0777 2.26702,-0.0141 16.73597,-2.03002 31.67379,-5.6125 44.96616,-11.09418 10.10684,-4.13366 18.95433,-9.41969 27.04487,-15.46266 3.57516,-2.66981 6.99827,-5.48485 10.31101,-8.40831 2.07525,3.49492 4.1728,6.97376 6.88445,9.88101 9.00053,9.66024 20.82726,14.66835 32.70991,14.13718 2.09982,-0.0939 4.00475,-1.16142 6.0541,-1.55193 -2.05764,10.19766 -3.00135,19.51439 -2.36173,27.99848 1.01986,13.52788 5.04487,25.99166 12.44043,35.16453 0.0236,0.0304 0.0473,0.0608 0.0711,0.091 7.78414,9.49704 18.71414,13.75976 29.95127,13.55559 3.87395,-0.0704 7.68873,-0.52719 11.71459,-3.62964 4.01472,-3.09381 7.04106,-10.45728 6.81138,-16.27085 1.2e-4,0.11272 2.4e-4,0.22543 3.6e-4,0.33814 -0.24134,-12.61885 3.04314,-34.86395 10.04538,-62.97895 11.45966,-4.01934 22.21432,-10.09226 32.23115,-18.23061 1.78069,3.26095 3.48761,6.58952 5.87133,9.31904 3.50372,4.00892 7.54848,7.31241 11.94219,9.86147 1.09217,0.63389 2.20611,1.22136 3.33897,1.76165 0.0829,0.0447 0.16617,0.0882 0.24985,0.1305 5.5765,2.48344 11.33452,3.90507 17.1061,4.13577 5.31526,0.21245 10.36617,-0.22595 15.15332,-1.46571 0.004,8e-5 0.009,1.5e-4 0.0134,2.3e-4 8.56105,-2.15084 16.73183,-6.25764 24.74891,-11.19351 7.93382,10.02725 19.56695,16.02346 32.48397,17.09602 12.73731,1.05765 25.5721,-3.4836 38.18773,-12.18337 0.0239,-0.0184 0.0477,-0.0369 0.0716,-0.0555 3.64204,-2.55521 7.00281,-5.73357 10.45125,-8.76974 6.54773,12.09773 16.56407,21.03634 29.28046,26.99807 7.87255,3.69341 16.7852,6.25233 26.59905,7.73421 15.03135,2.26971 29.99377,0.61091 44.70865,-4.8796 6.76891,-2.49671 13.3035,-5.72426 19.55557,-9.66898 0.005,-0.004 0.0105,-0.009 0.0157,-0.0133 6.23832,-3.95879 12.09834,-8.41791 17.5376,-13.39034 1.20969,-1.08476 2.58115,-2.94121 3.8176,-4.14944 -0.97802,6.7619 -1.07382,13.63281 0.59771,20.00449 4.81206,18.74245 19.27231,30.48227 37.43234,35.04096 2.6396,0.66262 5.3231,1.06554 8.047,1.22321 9.7745,0.58003 20.0623,-2.01522 30.6594,-7.1227 0.026,-0.0142 0.052,-0.0285 0.077,-0.043 2.1572,-1.06139 4.1934,-2.61606 6.3228,-3.82862 3.3784,15.36193 13.2902,26.98772 26.4463,31.28902 13.4415,4.39463 27.9235,3.74266 43.1864,-1.30167 0.01,-0.002 0.019,-0.004 0.029,-0.007 5.0904,-1.66871 9.9961,-4.16552 14.9303,-6.62328 2.2227,11.48488 7.3097,21.32118 14.6769,29.5569 6.6498,7.47199 15.1403,13.61209 25.147,18.53244 12.2123,6.00489 25.2361,8.30133 39.4268,7.26169 6.5145,-0.45104 13.1053,-1.5851 19.7629,-3.38213 0.01,-0.002 0.012,-0.005 0.018,-0.007 6.6489,-1.81325 13.228,-4.12289 19.7001,-6.95562 6.742,-2.87726 14.2013,-6.79904 22.8895,-11.72641 9.2008,-5.18482 16.3939,-9.32914 22.0636,-17.55107 2.6007,-3.77131 5.0015,-9.9381 3.8154,-15.69988 -1.187,-5.76582 -4.8946,-8.99879 -8.1545,-10.86629 -3.1987,-1.82976 -7.1607,-1.78635 -10.6768,0.10307 -10.9827,5.90457 -20.8187,8.90776 -30.2883,9.44807 -6.527,0.34497 -12.3281,-0.84315 -17.999,-2.72967 3.2347,0.14491 6.5029,0.54346 9.7139,0.43131 0.059,-8.9e-4 0.1181,-0.003 0.1773,-0.005 6.1134,-0.31426 12.1143,-1.27474 17.9582,-2.97645 0.049,-0.0172 0.1,-0.0344 0.1487,-0.0523 6.0337,-1.84761 11.8878,-4.64341 17.2678,-8.37387 5.6423,-3.81366 10.7215,-8.8066 14.3727,-14.79482 3.3322,-5.46499 5.7942,-11.43845 6.0224,-18.06305 0.5823,-14.89263 -8.7323,-27.89688 -22.2528,-35.43575 -17.1467,-9.56086 -36.4301,-13.80346 -56.4221,-12.73983 -8.4554,0.35941 -16.6933,1.69404 -24.6487,3.99227 -0.9014,0.25999 -1.7993,0.53236 -2.6934,0.8171 -8.8141,2.80676 -16.9535,6.72262 -24.3471,11.68859 -7.3489,4.86298 -13.8467,10.69052 -19.4211,17.4086 -0.037,0.0456 -0.066,0.0796 -0.1028,0.1253 -1.6057,1.98102 -2.7222,3.97796 -3.9848,5.97126 -3.2607,1.11548 -6.3999,1.94435 -9.3537,2.31648 -2.3955,0.25991 -4.7624,-0.002 -7.4639,-0.98739 -1.4889,-0.54315 -1.4722,-0.63094 -1.9452,-1.86801 -0.6181,-1.7202 -0.5475,-1.98986 -0.2654,-2.85551 0.9841,-3.01992 2.4036,-6.07758 4.3724,-9.21968 0.035,-0.0629 0.071,-0.12595 0.1055,-0.18943 6.6024,-10.89 18.1182,-22.06513 35.551,-31.86615 5.5278,-3.1088 8.3753,-10.07407 6.4951,-16.4311 -1.3867,-4.70196 -2.9684,-6.52148 -5.1193,-9.63875 -2.8034,-4.43392 -6.5659,-8.60868 -12.1881,-10.643806 -6.5587,-2.374125 -12.2249,-1.280183 -18.2212,0.468086 -5.9975,1.74876 -12.5128,4.6624 -19.9111,8.71499 -0.024,0.0145 -0.047,0.0294 -0.072,0.044 -6.8571,3.82141 -13.8212,8.47864 -20.8817,13.94113 -0.014,0.0121 -0.022,0.0246 -0.039,0.0357 -0.014,0.0121 -0.025,0.009 -0.035,0.0225 -7.1255,5.44106 -13.7905,11.41049 -19.9956,17.89092 -0.014,0.0125 -0.026,0.0255 -0.039,0.0383 -1.913,2.01306 -3.4598,3.87984 -4.9824,5.69582 -3.3914,2.37991 -6.7566,4.49923 -10.1213,6.11629 -8.0279,3.72116 -13.4141,4.17716 -16.4788,3.34541 -2.7596,-0.74899 -2.9879,-1.3082 -2.9122,-1.15879 0.064,-0.27138 0.054,-0.12024 0.1182,-0.39161 0.09,-0.38351 0.3473,-1.07042 0.9382,-2.05664 2.6703,-4.24883 6.6336,-8.10364 11.8873,-11.60499 2.2144,-0.46234 4.2602,-1.343 5.9554,-2.36218 7.963,-4.4984 14.5158,-12.42797 17.8809,-21.77416 2.6007,-7.22788 -0.7653,-15.26566 -7.4447,-17.588038 -11.2632,-3.906105 -20.5354,-8.356882 -28.6451,-13.202908 -2.9481,-1.76238 -5.7339,-3.571884 -8.3941,-5.417153 1.0284,-2.223981 3.0301,-4.143379 3.6309,-6.905256 1.2885,-5.923525 0.5238,-13.239308 -2.8529,-18.752326 -5.9008,-9.770852 -15.9714,-15.622707 -27.3362,-18.115031 8e-4,-5.15e-4 0,-0.001 0,-0.0015 z m -2.5216,13.291029 c 9.1802,2.015737 15.6491,6.149504 19.3511,12.282222 1.4656,2.345953 1.8588,5.125699 1.1915,8.336821 -0.6485,3.120758 -3.3124,7.99165 -7.9375,14.702007 6.244,5.402796 13.4769,10.284327 21.7122,14.703715 8.2803,4.442455 17.5574,8.408805 27.8815,11.994655 -2.3311,6.68863 -6.293,11.53654 -11.8236,14.58832 -1.5483,0.95793 -2.9363,1.27188 -4.171,0.93833 -7.7811,4.69094 -13.7517,10.49686 -17.9726,17.3402 -1.3263,2.19609 -2.2342,4.39588 -2.7302,6.5953 -2.0997,9.31198 1.6388,15.15921 11.0567,17.7198 6.3851,1.73599 14.2016,0.35799 23.6672,-4.03089 4.4525,-2.12703 8.7863,-4.77164 13.0392,-7.8131 1.9151,-2.26122 3.8341,-4.54055 5.9366,-6.72572 5.8477,-6.03227 12.1187,-11.59247 18.8237,-16.65602 6.7341,-5.16247 13.2805,-9.48862 19.6095,-12.98578 13.8983,-7.54963 23.5914,-10.23012 28.5988,-8.41569 2.1457,0.77744 4.176,2.66619 6.0641,5.66126 2.0078,2.92795 3.1899,5.02196 3.5611,6.25388 -18.715,10.64195 -31.8336,23.16686 -39.8399,36.70604 -2.5161,4.11351 -4.4344,8.32915 -5.778,12.63301 -1.3134,4.20756 -1.1233,8.49656 0.5123,12.87165 1.667,4.27853 4.4812,7.12808 8.4706,8.58533 3.9907,1.45774 7.9712,1.96324 11.9791,1.51651 4.1224,-0.51269 8.3572,-1.55976 12.7279,-3.13556 1.071,-0.40401 2.0978,-1.08396 3.1633,-1.53779 1.7009,-2.92338 3.5072,-5.72746 5.565,-8.21381 4.8124,-5.68223 10.4205,-10.65325 16.8609,-14.8555 4.6261,-3.06977 9.6065,-5.69194 14.9447,-7.84541 2.1354,-0.86136 4.3283,-1.64805 6.5784,-2.35815 7.8745,-2.48524 16.0631,-3.92438 24.5226,-4.26785 18.0641,-0.94695 35.0211,2.8533 50.0918,11.2621 10.8738,6.06713 16.1556,14.16091 15.8895,23.7115 -0.06,3.33167 -1.3128,7.06556 -3.7288,11.23315 -2.3634,4.07705 -5.6435,7.5226 -9.7794,10.39132 -4.0588,2.91567 -8.5318,5.11321 -13.4052,6.62811 -4.8252,1.42571 -9.9086,2.26016 -15.2661,2.53075 -5.3111,0.17994 -10.701,-0.0318 -16.1938,-0.63318 -9.7343,-1.00107 -20.1895,-3.31633 -31.5519,-6.88235 0.2818,11.98984 8.1632,21.51535 23.1375,29.57682 9.366,5.04221 19.3753,7.15005 30.537,6.53962 11.2558,-0.65446 23.0324,-4.27648 35.5687,-10.82495 3.4182,1.96064 3.9648,4.68325 1.7251,8.10696 -2.541,3.88426 -8.0595,8.0548 -16.4329,12.90497 -8.2405,4.80481 -15.2024,8.51367 -21.0979,11.06174 -5.8104,2.58336 -11.7786,4.70056 -17.9025,6.36536 -6.0094,1.61678 -11.9688,2.62028 -17.9229,3.00372 -12.9418,0.89183 -24.6328,-1.23042 -35.7568,-6.69046 -11.0178,-5.40792 -19.5541,-11.66599 -25.5822,-19.10417 -6.205,-7.6249 -9.6819,-16.43344 -10.2748,-26.55706 -0.1684,-3.18804 0.094,-6.46317 0.5437,-9.7843 -2.9731,1.86681 -5.729,3.85807 -8.9422,5.61537 -5.7818,3.23561 -11.714,5.84505 -17.8125,7.83866 -13.6965,4.52623 -26.0675,4.98117 -37.6584,1.19608 -12.1912,-3.98111 -18.9733,-12.51053 -20.2925,-25.95786 -0.4723,-4.31278 0.042,-9.28956 1.2375,-14.7152 -1.8032,1.38672 -3.4062,2.89377 -5.289,4.23458 -5.215,3.71405 -10.5098,6.89536 -15.8953,9.54463 -8.7093,4.19609 -16.6802,6.2697 -24.0559,6.17826 -2.8153,-0.0313 -5.541,-0.37705 -8.1838,-1.03927 -16.20668,-4.06092 -25.99914,-12.60495 -29.36751,-26.1649 -1.1708,-4.55743 -1.26797,-9.55869 -0.26014,-14.99947 1.02662,-5.54222 2.97672,-10.77989 5.88493,-15.70002 2.99462,-4.90075 6.67874,-9.48923 11.06936,-13.74807 9.03376,-8.88006 19.75636,-15.43731 32.15416,-19.54519 -10.5347,-3.2433 -19.3564,-6.60434 -26.5196,-10.21473 -9.11105,11.41262 -17.54944,21.44657 -25.79207,31.05496 -0.82587,1.08155 -1.2812,1.95674 -2.22978,3.10999 -6.13912,7.50904 -11.64238,13.49097 -16.5826,17.93994 -4.85068,4.46333 -10.12029,8.49542 -15.80531,12.10955 -5.58381,3.52934 -11.41928,6.41166 -17.5211,8.65601 -13.23301,4.9312 -26.45424,6.38044 -39.96172,4.34502 -10.46255,-1.57659 -19.39048,-4.16182 -26.83202,-7.84372 -11.87903,-5.8742 -19.94865,-14.54893 -24.1532,-26.2007 -1.03043,-2.90929 -1.63786,-6.01989 -2.11717,-9.19596 -2.12438,2.33155 -4.04424,4.74052 -6.34487,7.00778 -4.61088,4.54393 -9.41039,8.56806 -14.40381,12.07656 -11.18028,7.72046 -21.63852,11.18316 -31.63344,10.35568 -15.09732,-1.24988 -24.95905,-8.24144 -29.65372,-21.28337 -9.97306,7.77711 -20.25523,12.99445 -30.97435,15.67239 -3.69094,0.95568 -7.80426,1.33874 -12.352,1.15811 -4.46028,-0.17716 -8.91518,-1.26029 -13.38534,-3.24855 -2.72381,-1.29766 -5.2171,-2.89782 -7.4812,-4.80397 -1.3785,-1.16029 -2.67198,-2.43412 -3.88049,-3.82207 -4.85212,-5.57687 -7.94653,-12.6374 -9.30958,-21.14571 -1.99891,2.1795 -3.97636,4.38709 -6.1017,6.37446 -12.27752,11.27267 -25.69771,18.85532 -40.46612,22.84241 -8.23597,32.11328 -11.79049,56.73411 -11.3679,73.10659 0.18943,4.0991 -2.52497,6.17249 -8.127,6.27583 -9.20092,0.16973 -16.3714,-2.9003 -21.58904,-9.29734 -5.12641,-6.39077 -8.12433,-15.20676 -8.89491,-26.44967 -0.82318,-12.01021 2.42042,-29.41928 10.22949,-51.84104 -8.09374,7.82153 -16.7844,11.92704 -26.2357,12.35192 -9.27293,0.41685 -17.23413,-2.99469 -24.00135,-10.29379 -5.24805,-5.65436 -8.83805,-12.71078 -10.77035,-21.13628 -4.61725,5.46807 -9.8171,10.46098 -15.61891,14.97983 0,0 -1e-5,0 -1e-5,0 -8.65457,6.74179 -18.6361,12.42258 -30.03785,17.07874 -12.28276,5.0616 -26.40472,8.47644 -42.51476,10.43569 -0.22419,-0.0242 -0.4484,-0.0483 -0.67261,-0.0724 -0.85784,0.15659 -1.71543,0.31391 -2.57277,0.47197 -13.6642,1.69206 -24.70185,-0.78039 -33.31898,-7.60027 -8.0761,-6.3657 -13.37358,-15.81373 -15.71282,-28.40355 -3.21833,-17.32106 -0.23183,-34.87469 9.60896,-52.53379 9.55569,-17.092741 22.91583,-29.877626 39.87504,-38.108127 -1.21859,-4.500713 -0.21267,-8.433194 3.06096,-11.789238 2.34658,-2.426483 6.55836,-3.974477 12.6193,-4.602365 6.15573,-0.637702 12.15536,-0.606866 17.98048,0.08617 5.82546,0.692893 11.86571,2.885298 18.0784,6.585171 5.4496,3.178977 9.89998,6.971436 13.36207,11.35314 5.06925,6.41479 8.01696,14.085585 8.92341,22.990577 1.26709,12.447976 0.33664,24.569223 -2.66104,36.364553 -0.90667,3.56734 -2.00256,7.10573 -3.28438,10.61643 1.43661,-0.47445 2.84616,-1.02615 4.23012,-1.65262 6.7647,-3.0615 12.92137,-7.91199 18.61936,-14.25252 1.84128,-8.88877 5.31485,-17.763736 10.91505,-26.545805 9.43912,-14.895117 22.69199,-27.257381 39.77655,-36.84927 17.71662,-9.917421 36.60775,-14.939426 56.26115,-14.991638 10.86892,-0.02887 17.53914,2.551232 19.99304,7.584123 4.59285,-5.0845 7.86523,-7.758893 9.74499,-8.041177 1.8816,-0.384286 3.24891,-0.569816 4.09839,-0.556771 0.84994,0.01305 1.89004,0.132016 3.1199,0.35829 3.31144,0.568878 5.78016,2.052599 7.40046,4.442992 -8.05516,11.863703 -18.27753,33.233365 -29.78388,63.848159 -3.49657,9.509747 -6.83737,19.284887 -10.02153,29.325807 13.04799,-2.72542 25.45797,-10.14462 37.56317,-21.73051 2.06802,-8.301859 5.35581,-16.789417 10.19869,-25.450338 0.32696,-0.583962 0.6583,-1.164644 0.99404,-1.742042 7.15684,-12.308348 16.31254,-23.127598 27.50253,-32.37105 10.76899,-8.792424 19.56846,-12.965824 26.16177,-12.607883 3.57931,0.19432 7.55248,3.498401 11.85383,9.919614 -9.40786,6.509998 -17.49926,15.110237 -24.26567,25.758534 -7.52432,11.835497 -11.2483,22.72588 -11.37427,32.553565 -0.15249,11.89572 4.15276,18.00639 12.8415,18.44716 8.61956,0.43726 15.42928,-0.84725 20.48526,-3.92128 4.01082,-15.74631 12.50671,-31.779428 25.83299,-47.825495 13.23353,-15.955635 25.46236,-25.550646 36.24593,-28.853597 3.46212,-1.01043 7.96392,1.170392 13.41125,6.567811 1.32029,1.267431 2.32207,2.350515 3.00732,3.245525 -8.49413,6.638779 -15.57906,16.138374 -21.25961,28.471917 -4.81899,10.451145 -7.43728,20.05375 -7.95845,28.743259 -0.73668,12.28268 2.71478,18.74931 10.28033,19.48734 6.60684,0.64451 14.18477,-2.02459 22.88764,-7.96623 0.95548,-0.6685 1.78861,-1.59288 2.723,-2.30941 0.88985,-3.26816 1.91318,-6.44865 3.26725,-9.39014 3.20238,-6.75004 7.35559,-13.026365 12.48425,-18.809325 5.13737,-5.884545 11.1461,-11.132087 18.03633,-15.71567 0.46153,-0.307038 0.92545,-0.610133 1.39175,-0.909281 6.49447,-4.166986 13.45239,-7.568676 20.86182,-10.186676 16.89101,-6.194012 33.84976,-7.850801 50.50901,-4.960861 12.01435,2.084179 19.59914,7.752545 22.69756,16.785345 1.10995,3.133584 1.27115,7.074286 0.49965,11.830338 -0.75497,4.654183 -2.59592,9.044134 -5.49415,13.184663 -2.80782,4.157777 -6.30159,7.772457 -10.46811,10.857337 -4.15145,2.98395 -8.80021,5.47293 -13.94726,7.48014 -5.13259,1.90597 -10.50565,3.4295 -16.12736,4.57625 -9.94305,2.09424 -21.07615,3.03983 -33.47245,2.91174 3.98216,11.36036 14.95204,18.28537 32.90736,21.29751 11.22205,1.88257 22.18086,0.63428 33.08845,-3.75287 1.24179,-0.50431 2.43133,-1.20466 3.65145,-1.78877 14.86337,-9.43249 27.06795,-22.00745 36.0384,-38.31395 -8.57238,-6.857041 -12.1997,-14.673319 -10.66741,-23.568787 0.93727,-5.441119 5.39248,-11.782992 13.50699,-18.867622 7.71308,-6.966682 13.14678,-10.081634 16.14308,-9.423682 z m -558.50209,9.128902 c -16.09222,6.84777 -25.00526,19.532309 -26.85599,37.718202 -0.63445,5.550866 -0.48215,11.262126 0.4332,17.136426 1.83177,11.75551 7.10338,17.0595 15.76216,16.05378 7.34075,-0.85262 13.9963,-6.67847 20.17351,-17.50646 6.48511,-11.27112 9.16926,-22.268855 7.81608,-33.049297 C 468.5563,67.924921 462.82409,61.09164 452.60541,58.550972 Z m 194.736,-13.594905 c -23.72595,-0.100031 -43.48311,5.900918 -58.81837,17.597018 -7.14348,5.32404 -12.50033,11.457659 -16.09768,18.3567 -3.59793,6.90039 -5.11276,13.88623 -4.61618,20.939615 0.83547,11.86696 5.64002,17.60012 14.35456,17.31814 10.08732,-0.32641 22.98318,-12.92002 39.75918,-37.56823 4.34537,-6.393432 8.62043,-12.311378 12.80739,-17.751331 4.78362,-7.080262 9.41937,-13.376612 13.87633,-18.88606 -0.42174,-0.0021 -0.84348,-0.004 -1.26523,-0.0059 z m 329.64318,23.132594 c 0.0161,0.05024 0.0323,0.100479 0.0484,0.150718 -0.0103,-0.02606 -0.039,-0.03169 -0.0492,-0.05776 -0.009,-0.03321 0.0103,-0.06195 8.5e-4,-0.09294 z m -52.18651,1.778525 c -8.85632,-1.445418 -17.1724,2.050294 -24.78252,10.44942 -7.28777,8.033376 -11.86712,17.738178 -13.86109,29.044744 11.68408,0.11193 21.99781,-1.96809 31.04631,-6.31764 9.54557,-4.679538 14.9629,-11.011648 16.10033,-19.137945 1.15012,-8.217008 -1.66656,-12.922817 -8.50303,-14.038579 z m -470.21717,3.499048 c 1.73429,1.025785 2.60316,2.509848 3.16638,6.745961 0.94646,7.118656 -0.55012,14.696744 -5.95033,24.148715 -0.007,0.0167 -0.0144,0.0335 -0.0215,0.0503 -5.13642,9.06827 -9.19164,11.46062 -11.80046,11.76439 -0.61558,0.0716 -0.5971,0.084 -0.75339,0.11104 0.16142,0.14884 -0.54869,-0.53184 -1.09551,-4.22725 -0.6882,-4.65082 -0.76503,-9.0044 -0.25556,-13.215949 0.0103,-0.05732 0.0204,-0.114714 0.03,-0.17221 1.38551,-12.760683 6.65003,-19.865477 16.68038,-25.204997 z m 165.44313,-11.23635 8e-5,0.002 c -2.63404,3.623041 -5.24904,7.143027 -7.92566,11.105793 -8.02305,11.859366 -14.99197,20.539676 -20.522,25.819884 -5.52934,5.279561 -9.43893,6.580611 -10.26184,6.607431 -0.61893,0.0201 -0.60121,0.0339 -0.75923,0.0479 0.14833,0.16178 -0.50198,-0.57568 -0.73901,-4.30362 -0.26605,-4.184442 0.52498,-8.321693 3.174,-13.356555 2.63504,-5.008247 6.68169,-9.777435 12.64604,-14.217068 0.0354,-0.02644 0.0707,-0.05317 0.10584,-0.08 6.89652,-5.252648 15.06191,-9.043412 24.28179,-11.625702 z M 1255.1925,172.28508 c -7.9808,-4.20353 -17.031,-3.43774 -26.7682,2.31976 -9.3308,5.50944 -16.4755,13.49271 -21.6685,23.7369 10.8353,3.39 20.999,4.41813 30.769,3.04064 10.3229,-1.53765 17.4635,-5.76168 21.1894,-13.07611 3.7627,-7.38653 2.6503,-12.77039 -3.5217,-16.02119 z M 920.5143,83.527918 c -0.70505,2.117908 -2.23773,4.192341 -8.10315,7.079071 -1.26869,0.609074 -3.25033,0.377872 -4.60479,0.884869 0.37017,-0.436479 0.353,-1.088606 0.74481,-1.517575 l 0.002,-0.01548 c 4.70206,-5.152661 8.18824,-6.412446 11.9612,-6.430863 z m 53.07155,14.061414 c 0.75117,1.477157 2.11015,2.485198 3.02424,3.867488 -7.00533,10.45286 -15.26324,19.32723 -25.93768,26.15968 -0.85379,0.43127 -1.88609,0.95366 -2.03075,1.01247 -6.30655,2.53223 -12.51887,3.31596 -18.82221,3.34495 3.26946,-0.90025 6.65447,-1.58388 9.79319,-2.74916 0.0573,-0.02 0.11448,-0.0404 0.17153,-0.0614 5.93683,-2.31428 11.48304,-5.25198 16.54514,-8.87589 0.042,-0.0332 0.0837,-0.0669 0.1253,-0.10067 5.19519,-3.83027 9.77741,-8.52071 13.5078,-13.95034 1.79532,-2.54647 2.33676,-5.77353 3.62344,-8.647148 z M 1246.811,183.89333 c -1.3424,1.80051 -3.4288,3.26373 -9.8412,4.22979 -1.3801,0.19402 -3.1656,-0.62254 -4.5929,-0.54593 0.4819,-0.30443 0.6649,-0.931 1.1653,-1.22143 l 0.01,-0.0142 c 6.0032,-3.48797 9.7094,-3.60498 13.2623,-2.44826 z m -193.468,24.16901 c 0.01,0.0342 0.024,0.0642 0.028,0.1038 0,0.0254 -2e-4,0.0398 -0,0.0639 -0.01,-0.0559 -0.017,-0.1118 -0.026,-0.1677 z"
         style="font-size:40px;line-height:1.25;font-family:Molle;-inkscape-font-specification:Molle;fill:#d50c2d;stroke-width:1.07583"
         id="path15" />
      <path
         d="m 127.38052,3.3233752 c -3.81864,1.2860707 -7.58208,2.8238713 -11.28273,4.6119985 -11.02135,5.2805233 -21.549938,12.8646093 -31.333952,22.7082413 -6.19643,6.385957 -11.652769,13.315604 -16.33007,20.738278 -4.577898,7.381911 -7.988825,15.026321 -10.237167,22.881225 -2.293137,7.764929 -3.218076,15.521529 -2.828034,23.251959 0.39035,7.735283 2.524884,15.328163 6.296053,22.842513 3.769236,7.51048 9.423783,12.817 16.811838,16.08823 3.263302,1.43803 6.510353,2.22266 9.751794,2.35252 3.332929,0.0899 6.029099,-0.30502 8.111008,-1.20405 2.081008,-0.89862 3.90264,-2.2319 5.47668,-4.00851 5.82985,-6.46464 9.49185,-12.78808 10.9076,-19.08646 C 99.224111,109.055 89.930782,101.46457 85.28835,91.164849 79.351834,77.994067 80.928059,63.90865 90.778391,49.097108 98.31888,37.538001 108.73156,28.623875 121.67791,22.657638 c 2.81008,-1.305498 5.74172,-2.476448 8.7912,-3.509967 12.08147,-4.094602 23.13219,-3.620514 32.93565,1.273332 -0.90358,9.828082 -1.89045,20.010872 -2.96874,31.228071 -1.94831,20.325624 -4.25368,38.571013 -7.02539,54.730316 -2.85496,16.65091 -6.2297,31.15187 -10.23204,43.49326 -9.0072,27.61465 -20.90389,44.74551 -37.52184,52.38422 -11.30089,5.19463 -24.518117,6.22918 -40.468824,3.59291 -1.800498,3.39865 -2.660164,7.71417 -2.552725,12.91862 0.250109,9.58244 3.186763,18.68543 8.511595,27.44373 8.188198,13.46798 18.894722,20.28259 31.596804,21.08738 6.14682,0.36705 12.80774,-1.24625 20.20555,-4.77793 7.39943,-3.53246 13.52294,-9.61171 18.66835,-18.40788 9.89522,-16.93761 17.16823,-41.25882 22.65961,-73.17786 1.43283,-8.44025 2.75389,-16.92622 3.94685,-25.47381 0,0 0,0 0,-1e-5 5.24383,-37.56507 8.01999,-76.141324 7.21437,-116.02742 6.15614,6.48484 10.55636,13.156548 13.28407,19.929032 2.82281,6.741227 4.80193,11.889974 5.93524,15.391614 9.59543,29.64759 12.24905,62.765914 10.20532,99.658764 -1.85929,4.33896 -3.55316,8.90885 -5.07749,13.70799 -5.64326,17.17747 -6.85789,29.0701 -4.49163,35.33879 1.77355,4.69847 7.96657,8.22819 18.42281,10.86165 10.45803,2.63385 19.39359,2.88993 27.04422,0.63928 1.13881,-0.33501 2.387,-2.08773 3.7766,-5.25999 1.47476,-3.20306 2.73722,-9.14391 3.90602,-17.87755 1.74599,-14.4312 1.67323,-27.58155 -0.52392,-39.5254 7.77751,-26.26526 23.50611,-62.549761 50.12871,-107.202514 4.67473,-7.840029 9.43848,-15.655007 14.28402,-23.442374 2.41533,-3.881435 4.85253,-7.75716 7.31122,-11.627051 -0.95714,10.248685 -1.99441,20.437705 -3.10518,30.569015 -1.3934,12.722694 -2.90455,25.347852 -4.51907,37.891576 -7.31763,56.292838 -12.70279,89.481018 -19.65975,100.829458 2.52265,2.67131 5.62079,4.84358 9.28789,6.53123 9.36573,4.28104 19.36046,5.29751 30.20472,3.09326 5.96279,-1.21202 11.33815,-3.4084 16.15801,-6.61159 1.00241,-0.66569 1.98059,-1.37484 2.93478,-2.12762 12.20745,-9.68063 16.52936,-24.18557 12.55238,-43.7707 -11.14126,-54.866594 -17.79414,-109.959167 -18.45419,-165.651274 3.01802,-4.96286 5.743,-10.020048 8.16824,-15.17569 1.16292,-2.570265 2.06096,-4.939983 2.691,-7.112424 0.73004,-2.187822 0.93209,-4.188553 0.60045,-6.003412 -0.34995,-1.9151 -1.46252,-3.766338 -3.34489,-5.545321 -1.90073,-1.879069 -4.92696,-2.493934 -9.06825,-1.822884 -4.14081,0.670973 -8.41622,5.065376 -12.71507,13.181265 -2.64512,4.911528 -5.29868,14.753051 -7.76253,29.443786 -4.68229,6.0509002 -9.69332,12.38110618 -15.04393,19.045841 -0.45875,0.5832973 -0.91511,1.1649295 -1.36906,1.7448878 C 269.39761,56.824254 247.58483,94.09462 238.07354,116.57546 235.19673,100.04142 231.89781,85.267498 228.02727,72.178165 215.26862,29.031133 195.71151,4.1519414 168.22432,-0.96879436 156.37245,-3.1878211 142.68836,-1.8321233 127.38052,3.3233752 Z M 1211.4315,52.15548 c -9.4874,-3.752761 -18.5567,-4.316968 -27.0322,-1.758257 -3.9356,1.17343 -7.2959,3.118675 -10.0887,5.815636 -2.6996,2.732425 -4.8146,6.48842 -6.37,11.263974 -1.5557,4.776292 -0.6397,9.662843 2.6558,14.680311 1.5127,2.296891 3.4027,4.35899 5.675,6.191368 2.3058,1.73565 5.0561,3.210806 8.2573,4.440056 3.2028,1.229861 7.1143,2.202922 11.7588,2.949021 4.7694,0.686027 9.3837,0.849759 13.863,0.485993 4.4444,-0.452298 8.4941,-1.525927 12.152,-3.240927 0.059,-0.0275 0.1168,-0.05517 0.175,-0.083 3.7001,-1.767968 6.5839,-5.160121 8.6039,-10.202926 1.6009,-3.996674 1.7116,-8.216116 0.2835,-12.650254 -0.3742,-1.163786 -0.854,-2.342591 -1.4403,-3.535842 -2.7266,-5.702226 -8.9087,-10.563979 -18.4931,-14.355151 z m -200.324,-2.73341 c -2.9963,-0.657952 -8.4299,2.45699 -16.14307,9.423681 -8.11452,7.084629 -12.56973,13.426504 -13.50699,18.867622 -1.53229,8.895479 2.09503,16.711737 10.66741,23.568787 -8.97047,16.30652 -21.17502,28.88145 -36.0384,38.31395 -1.22013,0.58411 -2.40966,1.28446 -3.65146,1.78878 -10.90759,4.38715 -21.86639,5.63543 -33.08844,3.75286 -17.95535,-3.01214 -28.9252,-9.93714 -32.90736,-21.29751 12.3963,0.12809 23.52939,-0.8175 33.47245,-2.91174 5.62171,-1.14675 10.99476,-2.67028 16.12736,-4.57625 5.14704,-2.00721 9.79581,-4.49619 13.94725,-7.48014 4.16652,-3.08488 7.66029,-6.69955 10.46812,-10.857337 2.89822,-4.140539 4.73918,-8.530479 5.49415,-13.184663 0.77149,-4.756051 0.6103,-8.696754 -0.49965,-11.830337 -3.09842,-9.03281 -10.68321,-14.701165 -22.69757,-16.785345 -16.65927,-2.889944 -33.61799,-1.23316 -50.509,4.96086 -7.40944,2.618008 -14.36736,6.019683 -20.86182,10.186675 -0.46631,0.299148 -0.93023,0.602244 -1.39176,0.909283 -6.89024,4.583581 -12.89896,9.831115 -18.03632,15.715669 -5.12868,5.782959 -9.28188,12.059275 -12.48426,18.809325 -1.35407,2.94149 -2.3774,6.12198 -3.26725,9.39014 -0.93439,0.71653 -1.76752,1.64091 -2.723,2.30941 -8.70287,5.94164 -16.28079,8.61074 -22.88764,7.96623 -7.56556,-0.73803 -11.01701,-7.20465 -10.28033,-19.48734 0.52117,-8.689519 3.13946,-18.292104 7.95845,-28.743259 5.68055,-12.333553 12.76547,-21.833129 21.25961,-28.471917 -0.68525,-0.895009 -1.68701,-1.978093 -3.00731,-3.245525 -5.44735,-5.39743 -9.94913,-7.57824 -13.41126,-6.567811 -10.78358,3.30295 -23.01239,12.897953 -36.24593,28.853597 -13.32629,16.046075 -21.82216,32.079165 -25.83298,47.825495 -5.05599,3.07403 -11.8657,4.35854 -20.48527,3.92128 -8.68875,-0.44077 -12.99399,-6.55143 -12.8415,-18.44716 0.12597,-9.827694 3.84994,-20.718059 11.37427,-32.553565 6.76642,-10.648307 14.8578,-19.248536 24.26567,-25.758534 -4.30135,-6.421213 -8.27452,-9.725293 -11.85383,-9.919614 -6.59332,-0.357941 -15.39277,3.81545 -26.16177,12.607883 -11.19001,9.243462 -20.34568,20.062695 -27.50253,32.371051 -0.33574,0.577397 -0.66708,1.158079 -0.99404,1.742041 -4.84288,8.660921 -8.13067,17.148469 -10.1987,25.450338 -12.1052,11.5859 -24.51516,19.00508 -37.56316,21.73051 3.18417,-10.04093 6.52496,-19.81605 10.02153,-29.325807 11.50636,-30.614821 21.72871,-51.984439 29.78388,-63.848159 -1.6203,-2.390393 -4.08902,-3.874114 -7.40046,-4.442992 -1.22987,-0.226274 -2.26996,-0.345259 -3.1199,-0.35829 -0.84948,-0.01305 -2.21679,0.172485 -4.0984,0.556771 -1.87975,0.282284 -5.15213,2.956667 -9.74498,8.041177 -2.4539,-5.032891 -9.12411,-7.612992 -19.99304,-7.584123 -19.65342,0.05221 -38.54451,5.074216 -56.26115,14.991638 -17.08458,9.591899 -30.33743,21.954133 -39.77656,36.84927 -5.6002,8.782079 -9.07377,17.657025 -10.91504,26.545805 -5.698,6.34054 -11.85466,11.19102 -18.61936,14.25252 -1.38396,0.62647 -2.79352,1.17817 -4.23012,1.65262 1.28181,-3.5107 2.37771,-7.04909 3.28437,-10.61642 2.99769,-11.79534 3.92814,-23.916575 2.66104,-36.364563 -0.90645,-8.905006 -3.85415,-16.575799 -8.92341,-22.990585 -3.46209,-4.381699 -7.91246,-8.174153 -13.36207,-11.353132 -6.2127,-3.699882 -12.25292,-5.892269 -18.07839,-6.58517 -5.82512,-0.693036 -11.82474,-0.723873 -17.98049,-0.08617 -6.06095,0.62789 -10.27271,2.175872 -12.61929,4.602365 -3.27364,3.356044 -4.27956,7.288526 -3.06097,11.789238 -16.95921,8.230512 -30.31934,21.015376 -39.87504,38.108127 -9.84081,17.65912 -12.82729,35.21271 -9.60896,52.53379 2.33925,12.58983 7.63671,22.03786 15.71282,28.40355 8.61714,6.81989 19.65478,9.29233 33.31898,7.60027 0.85734,-0.15806 1.71493,-0.31538 2.57277,-0.47197 0.22422,0.0241 0.44842,0.0482 0.67262,0.0724 16.11006,-1.95924 30.23199,-5.37409 42.51476,-10.43569 11.40176,-4.65617 21.38328,-10.33695 30.03785,-17.07873 0,0 0,0 0,0 5.80181,-4.51885 11.00166,-9.51176 15.61892,-14.97984 1.93231,8.42551 5.52229,15.48191 10.77035,21.13628 6.76722,7.29911 14.72841,10.71065 24.00135,10.29379 9.45131,-0.42488 18.14195,-4.53039 26.2357,-12.35192 -7.80909,22.42178 -11.05267,39.83082 -10.2295,51.84104 0.77059,11.24293 3.7685,20.05889 8.89492,26.44967 5.21763,6.39705 12.3881,9.46707 21.58903,9.29734 5.60204,-0.10334 8.31644,-2.17673 8.12701,-6.27583 -0.42259,-16.3725 3.13192,-40.99328 11.3679,-73.10659 14.76843,-3.9871 28.18859,-11.56973 40.46612,-22.84241 2.12535,-1.98737 4.10279,-4.19495 6.1017,-6.37446 1.36305,8.50832 4.45745,15.56883 9.30958,21.14571 1.20851,1.38795 2.50199,2.66177 3.88049,3.82207 2.2641,1.90614 4.75738,3.5063 7.4812,4.80397 4.47016,1.98826 8.92506,3.07139 13.38534,3.24855 4.54774,0.18063 8.66106,-0.20243 12.352,-1.15811 10.71913,-2.67794 21.00128,-7.89527 30.97435,-15.67239 4.69467,13.04194 14.55639,20.03349 29.65372,21.28337 9.99493,0.82748 20.45315,-2.63522 31.63344,-10.35568 4.99343,-3.5085 9.79292,-7.53264 14.40382,-12.07656 2.30062,-2.26726 4.22047,-4.67623 6.34486,-7.00778 0.47932,3.17608 1.08673,6.28667 2.11717,9.19596 4.20456,11.65179 12.27417,20.32651 24.1532,26.20071 7.44154,3.6819 16.36948,6.26712 26.83202,7.84371 13.50749,2.03542 26.72871,0.58619 39.96172,-4.34502 6.10184,-2.24435 11.93728,-5.12666 17.5211,-8.65601 5.68503,-3.61413 10.95463,-7.64622 15.80532,-12.10955 4.94023,-4.44898 10.44347,-10.43089 16.58259,-17.93994 0.94859,-1.15325 1.40392,-2.02844 2.22979,-3.10999 8.24263,-9.6084 16.68101,-19.64232 25.79206,-31.05496 7.1632,3.61039 15.9849,6.97143 26.5197,10.21473 -12.3979,4.10789 -23.1205,10.66512 -32.15425,19.54519 -4.39062,4.25884 -8.07474,8.84731 -11.06936,13.74807 -2.90821,4.92013 -4.85831,10.15779 -5.88493,15.70002 -1.00783,5.44078 -0.91067,10.44203 0.26014,14.99947 3.36837,13.55996 13.16083,22.10397 29.3675,26.1649 2.6428,0.66222 5.3685,1.008 8.1838,1.03927 7.3757,0.0914 15.3466,-1.98217 24.056,-6.17826 5.3855,-2.64928 10.6802,-5.83058 15.8952,-9.54463 1.8828,-1.34081 3.4858,-2.84786 5.289,-4.23458 -1.1955,5.42565 -1.7098,10.40241 -1.2375,14.7152 1.3192,13.44735 8.1014,21.97675 20.2925,25.95786 11.5909,3.78509 23.9619,3.33016 37.6584,-1.19608 6.0985,-1.9936 12.0307,-4.60305 17.8125,-7.83866 3.2133,-1.75726 5.9691,-3.74855 8.9422,-5.61537 -0.4493,3.32113 -0.7121,6.59625 -0.5437,9.7843 0.5929,10.12363 4.0698,18.93217 10.2748,26.55707 6.0281,7.43818 14.5645,13.69624 25.5822,19.10416 11.124,5.46004 22.815,7.5823 35.7568,6.69047 5.9541,-0.38345 11.9136,-1.38693 17.923,-3.00373 6.1238,-1.66479 12.092,-3.78199 17.9025,-6.36536 5.8955,-2.54806 12.8573,-6.25691 21.0978,-11.06173 8.3734,-4.85018 13.8919,-9.02071 16.4329,-12.90497 2.2397,-3.42372 1.6931,-6.14633 -1.7251,-8.10696 -12.5363,6.54849 -24.3128,10.17048 -35.5687,10.82494 -11.1617,0.61045 -21.1709,-1.49736 -30.537,-6.53961 -14.9743,-8.06147 -22.8557,-17.58698 -23.1375,-29.57682 11.3624,3.56602 21.8176,5.88127 31.5519,6.88234 5.4928,0.60134 10.8827,0.81312 16.1938,0.63319 5.3575,-0.2706 10.4409,-1.10504 15.2661,-2.53076 4.8734,-1.5149 9.3464,-3.71242 13.4052,-6.62811 4.1359,-2.86873 7.416,-6.31426 9.7795,-10.39131 2.4159,-4.16759 3.6692,-7.90148 3.7287,-11.23315 0.2662,-9.5506 -5.0157,-17.64437 -15.8895,-23.71151 -15.0707,-8.40879 -32.0276,-12.209 -50.0918,-11.2621 -8.4595,0.34347 -16.6481,1.7826 -24.5226,4.26786 -2.2501,0.7101 -4.443,1.49679 -6.5784,2.35815 -5.3381,2.15347 -10.3185,4.77562 -14.9446,7.84541 -6.4406,4.20222 -12.0486,9.17325 -16.861,14.85549 -2.0578,2.48635 -3.8641,5.29042 -5.565,8.21381 -1.0655,0.45383 -2.0923,1.13378 -3.1632,1.5378 -4.3708,1.57579 -8.6056,2.62287 -12.728,3.13556 -4.0079,0.44672 -7.9884,-0.0588 -11.9791,-1.51651 -3.9894,-1.45726 -6.8036,-4.3068 -8.4706,-8.58534 -1.6356,-4.37509 -1.8257,-8.66409 -0.5122,-12.87165 1.3435,-4.30387 3.2619,-8.5195 5.7779,-12.63301 8.0064,-13.5392 21.1249,-26.06407 39.8399,-36.70604 -0.3712,-1.23191 -1.5533,-3.32592 -3.5611,-6.25388 -1.888,-2.99507 -3.9184,-4.8838 -6.0641,-5.66126 -5.0074,-1.81443 -14.7004,0.86605 -28.5988,8.41569 -6.329,3.49716 -12.8753,7.82331 -19.6095,12.98578 -6.7049,5.06355 -12.976,10.62375 -18.8237,16.65602 -2.1025,2.18518 -4.0215,4.46451 -5.9366,6.72572 -4.2529,3.04146 -8.5867,5.68607 -13.0391,7.8131 -9.4657,4.38889 -17.2822,5.76689 -23.6673,4.03089 -9.4179,-2.56059 -13.1564,-8.40782 -11.0567,-17.71979 0.496,-2.19943 1.404,-4.39921 2.7302,-6.59531 4.2209,-6.84334 10.1916,-12.64925 17.9726,-17.3402 1.2347,0.33355 2.6227,0.0196 4.171,-0.93833 5.5306,-3.05178 9.4925,-7.89968 11.8236,-14.58832 -10.3242,-3.58586 -19.6013,-7.5522 -27.8815,-11.994643 -8.2353,-4.41939 -15.4682,-9.300922 -21.7122,-14.703726 4.6251,-6.710367 7.289,-11.58124 7.9375,-14.702007 0.6674,-3.211132 0.2741,-5.990868 -1.1915,-8.336822 -3.702,-6.132717 -10.1709,-10.266482 -19.3511,-12.282221 z m -558.50209,9.128902 c 10.21869,2.540667 15.95089,9.373939 17.32896,20.352651 1.35319,10.780462 -1.33097,21.778167 -7.81608,33.049297 -6.17722,10.828 -12.83275,16.65384 -20.17351,17.50646 -8.65879,1.00572 -13.93038,-4.29825 -15.76216,-16.05378 -0.91535,-5.87431 -1.06765,-11.58556 -0.4332,-17.136426 1.85074,-18.185904 10.76377,-30.870421 26.85599,-37.718202 z m 194.736,-13.594905 c 0.42175,0.0018 0.84349,0.0038 1.26523,0.0058 -4.45697,5.509457 -9.09271,11.805789 -13.87633,18.88606 -4.18697,5.439961 -8.46201,11.357901 -12.80739,17.751331 -16.77602,24.64824 -29.67185,37.24182 -39.75918,37.56823 -8.71455,0.28198 -13.51909,-5.45117 -14.35456,-17.31814 -0.49658,-7.053395 1.01824,-14.039214 4.61618,-20.939615 3.59736,-6.899052 8.95419,-13.03266 16.09768,-18.3567 15.33527,-11.696111 35.0924,-17.697048 58.81837,-17.597018 0,3e-6 0,7e-6 0,10e-6 z m 277.45667,24.911119 c 6.83647,1.115762 9.65316,5.821562 8.50303,14.038579 -1.13743,8.126297 -6.55475,14.458408 -16.10033,19.137945 -9.04851,4.34955 -19.36222,6.42957 -31.04631,6.31764 1.99397,-11.306576 6.57331,-21.011359 13.86109,-29.044744 7.61013,-8.399135 15.92619,-11.894839 24.78252,-10.44942 z M 1255.1925,172.28508 c 6.172,3.2508 7.2844,8.63465 3.5217,16.02119 -3.7259,7.31444 -10.8665,11.53846 -21.1894,13.07611 -9.77,1.37749 -19.9337,0.34936 -30.769,-3.04064 5.193,-10.2442 12.3376,-18.22745 21.6685,-23.7369 9.7372,-5.75751 18.7874,-6.52329 26.7682,-2.31976 z"
         style="font-size:40px;line-height:1.25;font-family:Molle;-inkscape-font-specification:Molle;fill:#f43f5e;stroke:#ffffff;stroke-width:7.70702"
         id="path14" />
    </g>
  </g>
</svg>
